<svg width="226" height="42" viewBox="0 0 226 42" fill="none" xmlns="http://www.w3.org/2000/svg">
<path d="M160.128 10.322C157.865 10.973 156.78 11.5619 155.013 13.2048C153.122 15.0027 152.13 16.9245 151.634 19.7453C150.984 23.651 152.223 27.7737 154.827 30.3155C159.725 35.0582 169.117 34.8102 173.674 29.8506C175.813 27.4947 176.588 25.3559 176.588 21.7912C176.588 16.3356 174.108 12.5848 169.272 10.725C167.133 9.88805 162.422 9.67106 160.128 10.322ZM167.443 15.7156C169.52 16.7695 170.605 18.8774 170.605 21.8532C170.605 25.0459 168.869 27.4947 166.017 28.3317C162.67 29.3236 159.694 27.9907 158.082 24.7979C157.462 23.62 157.369 20.3963 157.896 19.0324C159.26 15.3746 163.755 13.8248 167.443 15.7156Z" fill="#A3B0C3"/>
<path d="M187.282 10.3222C183.934 11.2211 180.803 14.0419 179.563 17.2347C178.571 19.7455 178.571 23.8682 179.594 26.441C180.586 28.9828 183.376 31.8036 185.949 32.7955C188.584 33.8494 193.171 33.8804 196.023 32.8575C199.061 31.8036 198.968 31.9586 197.883 29.5098C197.356 28.3628 196.891 27.3399 196.829 27.3089C196.798 27.2779 195.992 27.5259 195.062 27.8669C192.985 28.7038 189.762 28.7968 188.429 28.0839C186.135 26.8439 184.833 24.5811 184.833 21.7913C184.833 18.5366 186.724 15.8708 189.576 15.0958C191.095 14.6928 194.194 15.1268 195.775 15.9328C196.302 16.2117 196.736 16.3667 196.798 16.3047C197.015 16.0877 198.813 11.9341 198.751 11.8721C198.689 11.8411 198.224 11.5931 197.728 11.3141C195.031 9.9502 190.258 9.48524 187.282 10.3222Z" fill="#A3B0C3"/>
<path d="M85.9815 11.7791C85.6405 12.523 83.4087 17.5756 81.0528 23.0312L76.7751 32.9505L80.1539 33.0435L83.5016 33.1365L88.0583 30.4707L92.646 27.8359H89.0192C86.4154 27.8359 85.3615 27.7429 85.3615 27.4639C85.3615 26.9369 89.4842 16.3667 89.6702 16.3667C89.7942 16.3667 91.3131 20.1484 93.0799 24.7361L96.3037 33.1055H99.3725C101.046 33.1055 102.41 32.9815 102.41 32.8575C102.41 32.7335 100.271 27.6809 97.6366 21.6363L92.863 10.6321L89.7322 10.5391L86.6014 10.4462L85.9815 11.7791Z" fill="#A3B0C3"/>
<path d="M112.361 12.864C111.865 14.1969 109.912 19.1875 108.021 23.9611C106.13 28.7348 104.58 32.7335 104.58 32.8575C104.58 33.0125 105.944 33.1055 107.649 33.1055H110.718L113.724 24.7051L116.762 16.3047L119.769 24.6121L122.776 32.9505L125.937 33.0435C127.89 33.1055 129.099 33.0125 129.006 32.8265C128.975 32.6715 126.96 27.5569 124.574 21.5123L120.234 10.4771H116.762H113.29L112.361 12.864Z" fill="#A3B0C3"/>
<path d="M130.928 21.7603V33.1055H134.028H137.128V24.2711V15.4368H139.235C140.754 15.4368 141.591 15.5918 142.335 16.0567C144.164 17.1726 144.505 19.4665 143.048 21.0784C142.273 21.9773 141.901 22.1323 140.258 22.2563L138.398 22.4113L139.7 24.6741L141.002 26.9369L142.459 26.7819C144.102 26.596 146.582 25.449 147.574 24.3641C148.876 23.0002 149.527 21.0474 149.527 18.5365C149.527 14.9098 148.194 12.678 145.187 11.2831C143.947 10.6941 143.11 10.6321 137.376 10.5391L130.928 10.4461V21.7603Z" fill="#A3B0C3"/>
<path d="M209.538 11.4691C209.29 12.027 207.12 17.0177 204.733 22.5353C202.316 28.0838 200.363 32.7025 200.363 32.8575C200.363 32.9815 201.727 33.1055 203.401 33.1055H206.469L209.693 24.7361C211.46 20.1484 212.979 16.3667 213.103 16.3667C213.289 16.3667 217.412 26.9369 217.412 27.4639C217.412 27.7429 216.358 27.8359 213.785 27.8359H210.127L214.715 30.4707L219.271 33.1365L222.65 33.0435L225.998 32.9505L221.162 21.7913L216.327 10.6321L213.134 10.5391L209.941 10.4462L209.538 11.4691Z" fill="#A3B0C3"/>
<path d="M65.6542 29.6416H36.2648L50.911 38L65.6542 29.6416Z" fill="url(#paint0_linear)"/>
<path d="M36.3642 29.6416L51.0233 4.1691L36.4735 12.6942L36.3642 29.6416Z" fill="url(#paint1_linear)"/>
<path d="M65.6185 29.6416L50.9594 4.1691L65.5092 12.6942L65.6185 29.6416Z" fill="url(#paint2_linear)"/>
<path d="M36.5345 12.3584H7.14508L21.7912 4L36.5345 12.3584Z" fill="url(#paint3_linear)"/>
<path d="M7.24441 12.3584L21.9035 37.8309L7.35371 29.3058L7.24441 12.3584Z" fill="url(#paint4_linear)"/>
<path d="M36.4988 12.3584L21.8397 37.8309L36.3895 29.3058L36.4988 12.3584Z" fill="url(#paint5_linear)"/>
<defs>
<linearGradient id="paint0_linear" x1="62.8068" y1="29.9897" x2="39.5523" y2="30.6809" gradientUnits="userSpaceOnUse">
<stop stop-color="#004272"/>
<stop offset="1" stop-color="#17AAFD"/>
</linearGradient>
<linearGradient id="paint1_linear" x1="37.4827" y1="27" x2="48.4827" y2="6.5" gradientUnits="userSpaceOnUse">
<stop stop-color="#004272"/>
<stop offset="1" stop-color="#17AAFD"/>
</linearGradient>
<linearGradient id="paint2_linear" x1="64.5" y1="27" x2="53.5" y2="6.5" gradientUnits="userSpaceOnUse">
<stop stop-color="#17AAFD"/>
<stop offset="1" stop-color="#004272"/>
</linearGradient>
<linearGradient id="paint3_linear" x1="33.0001" y1="10.5" x2="12.5001" y2="10.5" gradientUnits="userSpaceOnUse">
<stop stop-color="#FF7070"/>
<stop offset="1" stop-color="#AE1818"/>
</linearGradient>
<linearGradient id="paint4_linear" x1="7.39657" y1="16.3488" x2="17.6218" y2="34.1166" gradientUnits="userSpaceOnUse">
<stop stop-color="#FF7070"/>
<stop offset="1" stop-color="#AE1818"/>
</linearGradient>
<linearGradient id="paint5_linear" x1="36.3467" y1="16.3488" x2="26.1215" y2="34.1166" gradientUnits="userSpaceOnUse">
<stop stop-color="#AE1818"/>
<stop offset="1" stop-color="#FF7070"/>
</linearGradient>
</defs>
</svg>
