<svg width="76" height="80" viewBox="0 0 76 80" fill="none" xmlns="http://www.w3.org/2000/svg">
<path d="M12.027 19.526C17.4189 19.526 21.79 15.155 21.79 9.763C21.79 4.37104 17.4189 0 12.027 0C6.63502 0 2.26398 4.37104 2.26398 9.763C2.26398 15.155 6.63502 19.526 12.027 19.526Z" fill="#849AA4"/>
<path d="M19.479 20.67H4.575C2.049 20.67 0 22.719 0 25.246V51.184C0 53.676 1.996 55.696 4.477 55.75V75.424C4.477 77.951 6.484 80 8.957 80H15.101C17.574 80 19.58 77.951 19.58 75.424V55.75C22.06 55.695 24.058 53.678 24.058 51.184V25.247C24.054 22.719 22.006 20.67 19.479 20.67ZM10.694 22.167H13.694V23H10.694V22.167ZM12.361 44.396L10.027 40.712L11.501 23.27H13.221L14.695 40.712L12.361 44.396Z" fill="#849AA4"/>
<path d="M37.527 19.526C42.9189 19.526 47.29 15.155 47.29 9.763C47.29 4.37104 42.9189 0 37.527 0C32.135 0 27.764 4.37104 27.764 9.763C27.764 15.155 32.135 19.526 37.527 19.526Z" fill="#849AA4"/>
<path d="M44.979 20.67H30.075C27.549 20.67 25.5 22.719 25.5 25.246V51.184C25.5 53.676 27.496 55.696 29.977 55.75V75.424C29.977 77.951 31.984 80 34.457 80H40.601C43.074 80 45.08 77.951 45.08 75.424V55.75C47.56 55.695 49.558 53.678 49.558 51.184V25.247C49.554 22.719 47.506 20.67 44.979 20.67ZM36.194 22.167H39.194V23H36.194V22.167ZM37.861 44.396L35.527 40.712L37.001 23.27H38.721L40.195 40.712L37.861 44.396Z" fill="#849AA4"/>
<path d="M63.027 19.526C68.4189 19.526 72.79 15.155 72.79 9.763C72.79 4.37104 68.4189 0 63.027 0C57.635 0 53.264 4.37104 53.264 9.763C53.264 15.155 57.635 19.526 63.027 19.526Z" fill="#849AA4"/>
<path d="M70.479 20.67H55.575C53.049 20.67 51 22.719 51 25.246V51.184C51 53.676 52.996 55.696 55.477 55.75V75.424C55.477 77.951 57.484 80 59.957 80H66.101C68.574 80 70.58 77.951 70.58 75.424V55.75C73.06 55.695 75.058 53.678 75.058 51.184V25.247C75.054 22.719 73.006 20.67 70.479 20.67ZM61.694 22.167H64.694V23H61.694V22.167ZM63.361 44.396L61.027 40.712L62.501 23.27H64.221L65.695 40.712L63.361 44.396Z" fill="#849AA4"/>
</svg>
