<svg width="171" height="164" viewBox="0 0 171 164" fill="none" xmlns="http://www.w3.org/2000/svg">
<path fill-rule="evenodd" clip-rule="evenodd" d="M89.0016 101V163.424H120.944V134.646H138.284V163.424H170.226V101H89.0016ZM116.624 115.663H104.577V119.253H116.624V115.663ZM135.668 115.663H123.621V119.253H135.668V115.663ZM154.651 115.663H142.604V119.253H154.651V115.663Z" fill="#849AA4"/>
<path d="M103 97.6478L106.651 48H116.69L120.34 97.6478H103Z" fill="#849AA4"/>
<path d="M138.046 97.6478L141.696 48H151.735L155.386 97.6478H138.046Z" fill="#849AA4"/>
<path d="M129.25 0.1513C129.658 0.0849087 130.054 0.0572616 130.467 0.0296146C133.356 -0.163331 136.329 0.581867 138.863 2.40213C141.314 4.16239 142.83 6.69796 143.609 9.39919C145.381 9.61998 147.152 10.159 148.72 11.2853C149.999 12.2047 151.012 13.4025 151.762 14.6318C153.551 17.5647 153.667 21.1516 152.431 24.4274C155.755 27.1006 156.528 31.9392 154.013 35.4398C151.409 39.0651 146.318 39.8663 142.696 37.2651C140.625 35.7776 139.71 33.4728 139.593 31.1201C138.221 30.8154 136.825 30.4948 135.578 29.599C134.147 28.5714 133.3 27.1383 132.535 25.7051C129.515 25.9831 126.405 25.283 123.774 23.3931C117.978 19.23 116.693 11.1155 120.854 5.32283C122.935 2.42495 125.982 0.682415 129.25 0.1513Z" fill="#C8D3D7"/>
<path d="M76.0738 12.5023C78.2053 7.59281 83.0198 4.66378 88.0597 4.7144C89.7398 4.73134 91.4748 5.09927 93.1103 5.80934C95.9022 7.02172 97.9256 9.14567 99.2553 11.6503C101.011 11.5052 102.804 11.6228 104.549 12.3804C105.994 13.0081 107.267 13.9539 108.26 14.9967C108.389 15.14 108.492 15.3048 108.564 15.4835C108.605 15.532 108.584 15.6172 108.625 15.6659C108.647 15.7056 108.667 15.7462 108.686 15.7876C110.644 18.2069 111.463 21.2765 110.998 24.4273C114.803 26.3408 116.546 30.8825 114.831 34.8315C113.053 38.925 108.273 40.8664 104.183 39.0905C101.838 38.0723 100.472 35.9581 99.8634 33.6756C98.4535 33.6698 97.0172 33.6801 95.6044 33.0672C93.9592 32.3531 92.83 31.1105 91.7712 29.8427C88.8841 30.7457 85.73 30.7645 82.7665 29.4776C76.2206 26.6354 73.2333 19.0443 76.0738 12.5023Z" fill="#C8D3D7"/>
<path fill-rule="evenodd" clip-rule="evenodd" d="M42.4783 58.7164C19.909 58.547 9.57057 66.0676 4.57269 73.4404C-0.425578 80.813 0.00956986 88.1641 0.00956986 88.1641C0.00993672 88.1843 0.00993672 88.2044 0.00956986 88.2245V163H13.7601V107.998C13.7558 107.611 13.8875 107.234 14.132 106.934C14.3766 106.634 14.7186 106.429 15.0986 106.355C15.1998 106.346 15.3016 106.346 15.4028 106.355H69.8577C70.2924 106.359 70.7084 106.533 71.0157 106.84C71.3231 107.147 71.4972 107.563 71.5005 107.998V163H85.3119L85.0686 88.2245C85.0682 88.2044 85.0682 88.1843 85.0686 88.1641C85.0686 88.1641 85.2169 81.053 80.0795 73.7445C74.942 66.4359 64.5157 58.8819 42.4795 58.7164H42.4783ZM21.4267 95.5863H9.37977V99.176H21.4267V95.5863ZM36.6374 95.5863H48.6843V99.176H36.6374V95.5863ZM75.9419 95.5863H63.895V99.176H75.9419V95.5863Z" fill="#849AA4"/>
<path d="M17.047 117.186V109.641H68.2154V117.186H17.047Z" fill="#C8D3D7"/>
<path d="M17.0454 128.624V121.992H68.2138V128.624H17.0454Z" fill="#C8D3D7"/>
<path d="M17.0454 140.002V133.37H68.2138V140.002H17.0454Z" fill="#C8D3D7"/>
<path d="M17.0454 151.44V144.808H68.2138V151.44H17.0454Z" fill="#C8D3D7"/>
<path d="M17.0454 162.879V156.186H68.2138V162.879H17.0454Z" fill="#C8D3D7"/>
</svg>
