<svg width="59" height="70" viewBox="0 0 59 70" fill="none" xmlns="http://www.w3.org/2000/svg">
<path d="M3.6875 3.70306V23.5649H23.8011V3.70306H3.6875ZM2.83515 0H24.6535C26.2193 0 27.4886 1.26482 27.4886 2.82506V24.4429C27.4886 26.0032 26.2193 27.268 24.6535 27.268H2.83515C1.26934 27.268 0 26.0032 0 24.4429V2.82506C0 1.26482 1.26934 0 2.83515 0ZM30.8409 7.06948H59V11.7825H30.8409V7.06948ZM31.5114 15.4855H50.2841V20.1985H31.5114V15.4855ZM19.3614 7.74276L22.125 10.4571L12.5496 19.8619L5.69886 13.1333L8.46245 10.4189L12.5496 14.4332L19.3614 7.74276ZM2.83515 42.2214H24.6535C26.2193 42.2214 27.4886 43.4862 27.4886 45.0465V66.6643C27.4886 68.2246 26.2193 69.4894 24.6535 69.4894H2.83515C1.26934 69.4894 0 68.2246 0 66.6643V45.0465C0 43.4862 1.26934 42.2214 2.83515 42.2214ZM3.6875 45.9244V65.7863H23.8011V45.9244H3.6875ZM30.8409 49.2909H59V54.0039H30.8409V49.2909ZM31.5114 57.7069H50.2841V62.4199H31.5114V57.7069ZM19.3614 49.9641L22.125 52.6785L12.5496 62.0833L5.69886 55.3547L8.46245 52.6403L12.5496 56.6546L19.3614 49.9641Z" fill="black"/>
</svg>
