<svg width="32" height="32" viewBox="0 0 32 32" fill="none" xmlns="http://www.w3.org/2000/svg">
<path d="M14.7 23.8H17.3V21.2H14.7V23.8ZM16 3C14.2928 3 12.6023 3.33625 11.0251 3.98957C9.44788 4.64288 8.01477 5.60045 6.80761 6.80761C4.36964 9.24558 3 12.5522 3 16C3 19.4478 4.36964 22.7544 6.80761 25.1924C8.01477 26.3995 9.44788 27.3571 11.0251 28.0104C12.6023 28.6637 14.2928 29 16 29C19.4478 29 22.7544 27.6304 25.1924 25.1924C27.6304 22.7544 29 19.4478 29 16C29 14.2928 28.6637 12.6023 28.0104 11.0251C27.3571 9.44788 26.3995 8.01477 25.1924 6.80761C23.9852 5.60045 22.5521 4.64288 20.9749 3.98957C19.3977 3.33625 17.7072 3 16 3V3ZM16 26.4C10.267 26.4 5.6 21.733 5.6 16C5.6 10.267 10.267 5.6 16 5.6C21.733 5.6 26.4 10.267 26.4 16C26.4 21.733 21.733 26.4 16 26.4ZM16 8.2C14.6209 8.2 13.2982 8.74786 12.323 9.72304C11.3479 10.6982 10.8 12.0209 10.8 13.4H13.4C13.4 12.7104 13.6739 12.0491 14.1615 11.5615C14.6491 11.0739 15.3104 10.8 16 10.8C16.6896 10.8 17.3509 11.0739 17.8385 11.5615C18.3261 12.0491 18.6 12.7104 18.6 13.4C18.6 16 14.7 15.675 14.7 19.9H17.3C17.3 16.975 21.2 16.65 21.2 13.4C21.2 12.0209 20.6521 10.6982 19.677 9.72304C18.7018 8.74786 17.3791 8.2 16 8.2Z" fill="black"/>
</svg>
