<svg width="269" height="148" viewBox="0 0 269 148" fill="none" xmlns="http://www.w3.org/2000/svg">
<path fill-rule="evenodd" clip-rule="evenodd" d="M79.5 104C65.4167 104 54 92.5833 54 78.5C54 64.4167 65.4167 53 79.5 53C93.5833 53 105 64.4167 105 78.5C105 92.5833 93.5833 104 79.5 104ZM86.5 88C94.5081 88 101 81.5081 101 73.5C101 65.4919 94.5081 59 86.5 59C78.4919 59 72 65.4919 72 73.5C72 81.5081 78.4919 88 86.5 88Z" fill="white"/>
<path fill-rule="evenodd" clip-rule="evenodd" d="M189.5 104C203.583 104 215 92.5833 215 78.5C215 64.4167 203.583 53 189.5 53C175.417 53 164 64.4167 164 78.5C164 92.5833 175.417 104 189.5 104ZM185.5 88C193.508 88 200 81.5081 200 73.5C200 65.4919 193.508 59 185.5 59C177.492 59 171 65.4919 171 73.5C171 81.5081 177.492 88 185.5 88Z" fill="white"/>
<path fill-rule="evenodd" clip-rule="evenodd" d="M0 0C94.5 0 125 33 134.5 48C144 33 174.5 0 269 0C246.639 10.7664 247.713 27.2484 248.363 37.2334C248.498 39.3049 248.615 41.0968 248.5 42.5C243.727 39.5743 232.409 33.9456 222.828 33.1058C241.898 42.688 255 62.5508 255 85.5C255 117.809 229.033 144 197 144C177.687 144 160.579 134.48 150.038 119.838L134.5 148L118.5 119L118.328 117.856C107.937 133.615 90.1709 144 70 144C37.9675 144 12 117.809 12 85.5C12 62.8244 24.7912 43.1621 43.4929 33.4529C34.566 34.9575 24.8347 39.8432 20.5 42.5C20.3855 41.0968 20.5022 39.3049 20.6371 37.2334C21.2874 27.2484 22.3609 10.7664 0 0ZM42.3333 53.5252C33.5636 61.2939 28 72.7058 28 85.5C28 109.102 46.9332 128 70 128C92.7996 128 111.561 109.537 111.992 86.3183C100.301 72.7124 63.2505 54.2983 42.3333 53.5252ZM155.125 88.8046C156.794 110.841 175.021 128 197 128C220.067 128 239 109.102 239 85.5C239 72.7674 233.49 61.4037 224.793 53.6376C202.244 55.4816 163.766 75.4576 155.125 88.8046Z" fill="white"/>
</svg>
