<svg width="78" height="75" viewBox="0 0 78 75" fill="none" xmlns="http://www.w3.org/2000/svg">
<path d="M24.4029 12.7945H43.0496V9.50447H24.4029V12.7945Z" fill="black"/>
<path d="M43.0496 18.9785H24.4029V15.6885H43.0496V18.9785Z" fill="black"/>
<path d="M24.4029 25.1625H43.0496V21.8725H24.4029V25.1625Z" fill="black"/>
<path fill-rule="evenodd" clip-rule="evenodd" d="M11.9783 0V14.1626L0 18.7972V64.4598H67.4525V18.7691L54.8323 14.1351L54.8459 0H11.9783ZM6.72534 20.9018L11.9783 18.8693V24.7763L6.72534 20.9018ZM16.3873 28.0284V4.38668H50.4326L50.4099 27.9926L32.9201 40.2229L16.3873 28.0284ZM60.5419 20.9075L54.822 24.9073L54.8278 18.8093L60.5419 20.9075ZM63.0434 24.52V57.0963L43.4295 38.2356L63.0434 24.52ZM39.7563 40.8042L59.7948 60.0731H7.45505L26.3904 40.8673L32.8512 45.6328L39.7563 40.8042ZM4.40906 24.654V56.8983L22.8146 38.2298L4.40906 24.654Z" fill="black"/>
<path d="M78 29.4882V75H7.45505V70.6133H73.5909V29.4882H78Z" fill="black"/>
</svg>
