<svg width="59" height="66" viewBox="0 0 59 66" fill="none" xmlns="http://www.w3.org/2000/svg">
<path fill-rule="evenodd" clip-rule="evenodd" d="M40.3522 0.0788576C39.8363 -0.0569237 39.3292 -0.0206799 38.8609 0.213447L29.3956 5.1049L28.7168 5.44434L28.6777 5.47361C28.4794 5.62236 28.3017 5.78664 28.1469 5.96724C27.9717 6.17163 27.8437 6.40447 27.7787 6.66454C27.7193 6.90216 27.7065 7.14724 27.7341 7.39546C27.7651 7.67435 27.8691 7.92977 28.0302 8.15758L28.4774 9.05192H28.5789L34.2609 17.9453L34.2624 17.9478C34.545 18.3986 34.9522 18.7046 35.4642 18.8468C35.9932 18.9938 36.5096 18.9168 36.9756 18.6255L37.464 18.3203C37.9757 18.054 38.2499 17.5855 38.3071 17.0136C38.3606 16.4793 38.253 15.9769 37.9735 15.5296L34.8953 10.7296C35.2893 10.7888 35.6605 10.8771 36.0096 10.9934L36.0278 10.9995L36.0463 11.0043C39.2749 11.8321 42.1467 13.2789 44.6678 15.3454C47.1934 17.4156 49.2222 19.9198 50.7558 22.8624C52.2061 25.6803 53.0534 28.6177 53.3015 31.6779C53.5498 34.7402 53.1985 37.761 52.2455 40.7442C51.2926 43.7271 49.8233 46.396 47.8367 48.7552C45.8499 51.1145 43.4705 53.0183 40.6946 54.4684L40.686 54.473C40.0988 54.7933 39.6912 55.2837 39.479 55.9204C39.2613 56.5736 39.3214 57.2301 39.6354 57.858C39.8497 58.2866 40.1635 58.6292 40.5715 58.874C40.9651 59.1102 41.3886 59.2369 41.8344 59.2369C42.0492 59.2369 42.2584 59.2101 42.4595 59.1526C42.6462 59.0993 42.8364 59.0221 43.0293 58.9257L43.0342 58.9232C44.7181 58.0597 46.2844 57.0444 47.7324 55.8774C49.1776 54.7126 50.4939 53.4287 51.6809 52.0259C52.869 50.6217 53.9162 49.0994 54.8224 47.4595C55.7289 45.8192 56.4627 44.093 57.0238 42.2815C57.6278 40.4682 58.0275 38.6317 58.2221 36.7725C58.4161 34.9184 58.4377 33.0743 58.2867 31.2404C58.1355 29.4042 57.8007 27.59 57.2826 25.7984C56.7649 24.0078 56.0747 22.2717 55.2127 20.5903C54.3061 18.7777 53.2262 17.1038 51.9728 15.5694C50.7219 14.0381 49.3408 12.6569 47.8298 11.4265C46.3163 10.1941 44.6735 9.13505 42.9022 8.2494C41.1374 7.36697 39.2872 6.66729 37.3523 6.1502C37.2872 6.12863 37.2215 6.10774 37.1552 6.08752L40.8924 4.21891L40.9142 4.20529C41.3487 3.93374 41.6729 3.55206 41.8841 3.07689C42.1147 2.55808 42.0983 2.0264 41.8153 1.54079L41.6232 1.02831L41.5944 0.982324C41.3064 0.521475 40.8817 0.218195 40.3522 0.0788576ZM17.4847 7.17188C16.8388 6.95658 16.199 7.0099 15.6025 7.33238C13.8791 8.19475 12.2831 9.2086 10.8153 10.3742C9.34774 11.5396 8.0094 12.8347 6.80063 14.2594C5.59347 15.6821 4.52629 17.202 3.59931 18.8188C2.6696 20.4404 1.92386 22.1586 1.36194 23.9726C0.757947 25.7859 0.3583 27.6224 0.163737 29.4815C-0.0302927 31.3356 -0.051927 33.1798 0.099099 35.0136C0.250316 36.8499 0.585141 38.664 1.10321 40.4556C1.6212 42.247 2.31172 43.9839 3.17434 45.666L3.17649 45.6702C4.12457 47.4802 5.22449 49.1519 6.47654 50.6846C7.72944 52.2183 9.1337 53.601 10.6889 54.8322C12.2413 56.0612 13.9017 57.1286 15.6695 58.034C17.1035 58.7685 18.5941 59.3616 20.1409 59.8133L16.2459 61.833L16.2422 61.8349C15.7618 62.0763 15.444 62.4781 15.2996 62.998C15.1578 63.5083 15.2244 64.0068 15.4907 64.4597L15.6827 64.9716L15.7115 65.0176C15.9825 65.4513 16.3569 65.7649 16.8347 65.9142C17.3166 66.0649 17.7997 66.0139 18.2544 65.7865L27.7197 60.895L27.7261 60.8918L28.3985 60.5556L28.4376 60.5263C28.6359 60.3776 28.8136 60.2133 28.9684 60.0327C29.1436 59.8283 29.2716 59.5955 29.3366 59.3354C29.396 59.0978 29.4088 58.8527 29.3812 58.6045C29.3488 58.3134 29.237 58.0479 29.0637 57.8127L28.781 57.3887V57.3309L22.8544 48.0546L22.853 48.0524C22.5705 47.6014 22.1631 47.2953 21.6511 47.1531C21.1185 47.0051 20.5916 47.0872 20.1002 47.3602L20.088 47.367L19.5877 47.6797C19.067 47.9508 18.8035 48.4321 18.7744 49.0131C18.7481 49.5399 18.8677 50.0318 19.1418 50.4703L22.1405 55.1463C20.6678 54.7413 19.2571 54.1968 17.9077 53.5126C16.4371 52.7669 15.0712 51.8872 13.8092 50.8735C12.5469 49.8596 11.3983 48.7214 10.3631 47.4584C9.3278 46.1953 8.41635 44.839 7.62865 43.389C6.22194 40.6149 5.38479 37.688 5.11577 34.6046C4.84679 31.5217 5.18784 28.4915 6.14033 25.5098C7.09207 22.5304 8.59092 19.8636 10.639 17.5051C12.6909 15.1423 15.1043 13.2366 17.8818 11.7856L17.8903 11.781C18.4776 11.4607 18.8852 10.9703 19.0974 10.3337C19.3151 9.68045 19.2549 9.02395 18.941 8.39605L18.9367 8.38741L18.932 8.37894C18.6117 7.79172 18.1213 7.38409 17.4847 7.17188Z" fill="black"/>
</svg>
