<svg width="36" height="27" viewBox="0 0 36 27" fill="none" xmlns="http://www.w3.org/2000/svg">
<path d="M34.8903 17.4293H31.9162V14.1805C31.9162 13.5219 31.3835 13.039 30.762 13.039H18.4217V9.52683H21.3958C21.9285 9.52683 22.328 9.08781 22.328 8.60488V0.921951C22.328 0.395122 21.8841 0 21.3958 0H13.672C13.1393 0 12.7398 0.439025 12.7398 0.921951V8.60488C12.7398 9.13171 13.1837 9.52683 13.672 9.52683H16.6461V13.039H5.06042C4.39457 13.039 3.90629 13.5659 3.90629 14.1805V17.4293H0.932183C0.399507 17.4293 0 17.8683 0 18.3512V26.0341C0 26.561 0.443897 26.9561 0.932183 26.9561H8.70037C9.23304 26.9561 9.63255 26.5171 9.63255 26.0341V18.3951C9.63255 17.8683 9.18865 17.4732 8.70037 17.4732H5.72626V14.839H16.7349V17.4732H13.7608C13.2281 17.4732 12.8286 17.9122 12.8286 18.3951V26.078C12.8286 26.6049 13.2725 27 13.7608 27H21.529C22.0617 27 22.4612 26.561 22.4612 26.078V18.3951C22.4612 17.8683 22.0173 17.4732 21.529 17.4732H18.5549V14.839H30.2737V17.4732H27.2996C26.767 17.4732 26.3674 17.9122 26.3674 18.3951V26.078C26.3674 26.6049 26.8113 27 27.2996 27H35.0678C35.6005 27 36 26.561 36 26.078V18.3951C35.8224 17.8683 35.4229 17.4293 34.8903 17.4293ZM14.5154 1.7561H20.5968V7.77073H14.5154V1.7561ZM7.81258 25.2439H1.7312V19.1854H7.81258V25.2439V25.2439ZM20.5968 25.2439H14.5154V19.1854H20.5968V25.2439V25.2439ZM34.0469 25.2439H27.9655V19.1854H34.0469V25.2439Z" fill="black"/>
</svg>
