<svg width="44" height="31" viewBox="0 0 44 31" fill="none" xmlns="http://www.w3.org/2000/svg">
<path fill-rule="evenodd" clip-rule="evenodd" d="M4 0C1.79086 0 0 1.79086 0 4V31H9.03544C9.01209 30.8367 9 30.6698 9 30.5C9 28.567 10.567 27 12.5 27C14.433 27 16 28.567 16 30.5C16 30.6698 15.9879 30.8367 15.9646 31H28.0354C28.0121 30.8367 28 30.6698 28 30.5C28 28.567 29.567 27 31.5 27C33.433 27 35 28.567 35 30.5C35 30.6698 34.9879 30.8367 34.9646 31H44V4C44 1.79086 42.2091 0 40 0H4ZM4 2C2.89543 2 2 2.89543 2 4V29H7.20703C7.85996 26.6915 9.98245 25 12.5 25C15.0176 25 17.14 26.6915 17.793 29H26.207C26.86 26.6915 28.9824 25 31.5 25C34.0176 25 36.14 26.6915 36.793 29H42V4C42 2.89543 41.1046 2 40 2H4Z" fill="black"/>
<path fill-rule="evenodd" clip-rule="evenodd" d="M38 11H6V13H38V11ZM6 16H28V18H6V16ZM38 6H6V8H38V6Z" fill="black"/>
</svg>
