<svg width="20" height="17" viewBox="0 0 20 17" fill="none" xmlns="http://www.w3.org/2000/svg">
<path d="M0 10.4762L0.952381 12.381V14.2381C0.952381 14.7904 1.4001 15.2381 1.95238 15.2381H18.0476C18.5999 15.2381 19.0476 14.7904 19.0476 14.2381V12.381L20 10.4762V14.1905C20 15.295 19.1046 16.1905 18 16.1905H2C0.895431 16.1905 0 15.295 0 14.1905V10.4762Z" fill="black"/>
<path fill-rule="evenodd" clip-rule="evenodd" d="M4 11.4285C1.79086 11.4285 0 9.63768 0 7.42854V4.85712C0 3.75255 0.895431 2.85712 2 2.85712H18C19.1046 2.85712 20 3.75255 20 4.85712V7.42854C20 9.63768 18.2091 11.4285 16 11.4285H13.3333V10.4762H16.0476C17.7045 10.4762 19.0476 9.13302 19.0476 7.47616V4.8095C19.0476 4.25721 18.5999 3.8095 18.0476 3.8095H1.95238C1.4001 3.8095 0.952381 4.25721 0.952381 4.8095V7.47617C0.952381 9.13302 2.29553 10.4762 3.95238 10.4762H5.71429V11.4285H4Z" fill="black"/>
<path d="M12.3333 0C12.8856 0 13.3333 0.447715 13.3333 1V1.90476H12.3809V0.952381H6.66666V1.90476H5.71428V1C5.71428 0.447715 6.16199 0 6.71428 0H12.3333Z" fill="black"/>
<path fill-rule="evenodd" clip-rule="evenodd" d="M7.61905 12.3809H11.4286V8.57141H7.61905V12.3809ZM10.4762 11.4286V9.52379H8.57143V11.4286H10.4762Z" fill="black"/>
</svg>
