<svg width="21" height="18" viewBox="0 0 21 18" fill="none" xmlns="http://www.w3.org/2000/svg">
<path fill-rule="evenodd" clip-rule="evenodd" d="M13.9157 0.863637C14.0369 0.877445 14.1295 0.903477 14.253 0.944212L14.2544 0.944675C14.8887 1.1607 15.6037 1.72433 16.0167 2.32557C16.433 2.92961 16.6425 3.74894 16.7964 5.21497C16.889 6.10862 16.9523 6.48597 17.0987 6.98988L17.099 6.9909C17.26 7.56025 17.4918 8.12888 17.8575 8.86658L18.2835 9.72192H17.8297H14.4941C14.5452 9.98871 14.7147 10.1944 15.3356 10.6018C15.7844 10.8987 16.4353 11.221 17.5098 11.6761C18.263 11.9943 18.7061 12.1946 19.0036 12.3786C19.2459 12.5284 19.3916 12.6673 19.5296 12.8502C19.8612 13.285 20.0064 13.8606 20.039 14.7218L20.0665 15.4266H17.3551V14.5525H19.1422V14.5267C19.1422 14.3163 19.1014 14.0758 19.0337 13.8577C18.9651 13.6371 18.8739 13.4555 18.7832 13.3525C18.5994 13.1463 18.407 13.033 17.2673 12.5442C15.4822 11.7773 14.7065 11.3517 14.1443 10.8024C13.9123 10.5771 13.7528 10.3461 13.6687 10.0832C13.5846 9.82031 13.5801 9.53878 13.6366 9.21931L13.6369 9.21776L13.7063 8.84787H14.1612H15.4535C15.9001 8.84787 16.3055 8.84697 16.599 8.84518C16.696 8.84459 16.7806 8.8439 16.8504 8.84312C16.8187 8.77117 16.7804 8.68496 16.7391 8.59273C16.4711 7.98551 16.2061 7.18156 16.0928 6.62388C16.0415 6.36994 15.9658 5.84093 15.9262 5.44318L15.9222 5.40472C15.7484 3.74252 15.5677 3.16453 15.1027 2.61113C14.9396 2.41531 14.7204 2.22204 14.4918 2.06575C14.4705 2.05122 14.4493 2.03707 14.4281 2.0233C14.2424 1.90284 14.0594 1.81233 13.9036 1.76442C13.8846 1.75858 13.866 1.75337 13.8479 1.74881C13.7571 1.72602 13.5543 1.71819 13.338 1.72849C13.2331 1.73348 13.1309 1.74244 13.0451 1.75441C12.9564 1.76679 12.8975 1.78081 12.8704 1.7918C12.8131 1.81673 12.702 1.88877 12.6265 1.95122C12.499 2.06053 12.3911 2.1384 12.2494 2.18525C12.1122 2.2306 11.9546 2.24301 11.7364 2.2484L11.7352 2.24843C11.5287 2.25188 11.3203 2.26205 11.2695 2.26563C11.2432 2.26907 11.2021 2.27179 11.1578 2.25659C11.1056 2.2387 11.0706 2.20398 11.0469 2.17012C11.0252 2.13907 11.0084 2.10234 10.994 2.06644C10.979 2.02912 10.9627 1.98296 10.9439 1.92825L10.9434 1.92686C10.9201 1.85674 10.8984 1.79031 10.8824 1.73932C10.8744 1.71396 10.8675 1.69135 10.8625 1.67359C10.86 1.66484 10.8576 1.6559 10.8557 1.64775C10.8548 1.64399 10.85 1.62414 10.85 1.60332C10.85 1.53962 10.8868 1.49977 10.9026 1.48507C10.9207 1.46835 10.9395 1.458 10.9512 1.45219C10.9756 1.44001 11.0035 1.43108 11.0279 1.42432C11.079 1.41021 11.1458 1.39749 11.2179 1.38678C11.363 1.36523 11.5474 1.34927 11.7077 1.34927C11.8656 1.34927 11.9149 1.34685 11.9481 1.33684C11.9728 1.32938 11.9917 1.31725 12.0797 1.24425C12.2963 1.0619 12.4554 0.979789 12.7195 0.909559C12.8587 0.871568 13.1334 0.850594 13.4406 0.850566C13.6589 0.848789 13.799 0.850352 13.9157 0.863637ZM15.3828 16.036L15.3828 16.0349C15.3694 15.3849 15.3496 14.9739 15.3026 14.7499C15.2092 14.299 15.0181 13.922 14.6791 13.5898C14.3514 13.2687 13.9014 13.0055 13.3191 12.7453L13.3178 12.7447L13.3166 12.7442C12.8956 12.5596 12.5024 12.4201 11.6237 12.1439C10.9758 11.9391 10.6219 11.7739 10.4225 11.6183C10.3429 11.5561 10.2743 11.4838 10.2257 11.4168C10.2102 11.3954 10.1984 11.3768 10.1895 11.3614C10.2115 11.3347 10.2397 11.3016 10.2766 11.2588C10.5634 10.9275 10.756 10.6718 10.9546 10.3393C11.0236 10.231 11.1695 10.0535 11.3167 9.91728L11.3185 9.9156L11.3203 9.9139C11.7968 9.46175 12.1068 8.92201 12.2372 8.2938L12.2374 8.29269C12.3049 7.96317 12.2438 7.58964 12.0816 7.29352L12.0736 7.27787C12.0747 7.26882 12.0765 7.25631 12.0793 7.23896C12.093 7.15857 12.1019 7.01405 12.1079 6.8701C12.1146 6.71215 12.119 6.52029 12.119 6.33089C12.1224 5.74484 12.113 5.57704 12.0396 5.26967L12.039 5.26698L12.0383 5.26431C11.8361 4.46547 11.4378 3.89717 10.7305 3.7069C10.6596 3.56542 10.5477 3.42086 10.4384 3.30153C10.3228 3.17536 10.1826 3.0476 10.0445 2.95813L10.0435 2.95751C9.91625 2.87555 9.68814 2.78053 9.52264 2.72743L9.52127 2.72699C9.52127 2.72699 8.69413 2.46506 7.5 2.72699L6.21875 3.10795L5.56816 3.44301C5.21104 3.63248 4.93301 3.81282 4.7122 4.07449C4.49285 4.33445 4.35558 4.64442 4.21815 5.04134C4.04563 5.53154 3.98443 5.9521 3.96672 6.68024C3.958 6.96964 3.9514 7.10658 3.94 7.19396C3.93166 7.25786 3.92279 7.28539 3.89271 7.35652C3.72794 7.73828 3.71113 8.11408 3.83307 8.51385C4.01231 9.11521 4.3772 9.69942 4.81678 10.0368C4.86255 10.0725 4.96439 10.1852 5.01445 10.2667L5.01633 10.2698L5.01827 10.2728C5.17991 10.5258 5.42839 10.8674 5.62074 11.0837L5.62133 11.0844L5.61787 11.1201C5.59429 11.3262 5.49165 11.5278 5.32529 11.676L5.32449 11.6767L5.32369 11.6774C5.10202 11.8771 4.7164 12.0654 3.62923 12.4242C2.56702 12.7724 2.16721 12.9346 1.79406 13.2193L1.79355 13.2197C1.48036 13.4594 1.24046 13.7172 1.06472 14.0548C0.892859 14.3851 0.79547 14.7669 0.727581 15.2335L0.600006 16.8864V17V17.4H15.4072L15.3828 16.036ZM14.5928 16.6L14.583 16.0514L14.583 16.0507C14.569 15.3732 14.5478 15.0479 14.5196 14.9138L14.5193 14.9126C14.4553 14.6031 14.3351 14.3728 14.1192 14.1612C13.892 13.9386 13.5435 13.7219 12.994 13.4763C12.6149 13.3101 12.2553 13.1811 11.3835 12.907L11.3829 12.9068C10.7243 12.6986 10.2504 12.499 9.92975 12.2486L9.92946 12.2484C9.79347 12.1419 9.67217 12.0162 9.57796 11.8863C9.48845 11.7628 9.40212 11.6062 9.3742 11.4377L9.37403 11.4366L9.37387 11.4356C9.36754 11.3962 9.35879 11.3305 9.36824 11.2531C9.37835 11.1703 9.40571 11.0998 9.43905 11.0393C9.49149 10.9442 9.57915 10.8426 9.668 10.7396L9.66801 10.7396L9.67119 10.7359L9.67169 10.7353C9.93774 10.428 10.1005 10.2095 10.2703 9.92482L10.2729 9.92059L10.2755 9.91641C10.385 9.74262 10.5787 9.51064 10.7713 9.332C11.1352 8.98614 11.3584 8.59037 11.4538 8.13189C11.4817 7.99486 11.4546 7.81294 11.3791 7.67614L11.3771 7.67262L11.3753 7.66905C11.3399 7.60185 11.2957 7.51153 11.279 7.39681C11.2632 7.28741 11.2773 7.18701 11.2899 7.1091L11.2904 7.10609L11.2909 7.10344C11.2909 7.10344 11.2918 7.09743 11.2933 7.08293C11.2948 7.06783 11.2966 7.04793 11.2984 7.02318C11.302 6.97372 11.3055 6.91019 11.3086 6.83653C11.3148 6.68934 11.319 6.50821 11.319 6.3297V6.32852L11.319 6.32735C11.3224 5.75342 11.3114 5.6648 11.2621 5.45801C11.0968 4.80715 10.8374 4.56006 10.5111 4.47639L10.5087 4.47577L10.5062 4.47511C10.4357 4.45608 10.316 4.42319 10.2097 4.3346C10.1061 4.24813 10.0514 4.13825 10.0203 4.07557L10.0183 4.07163L10.0171 4.06905C9.99501 4.02296 9.93683 3.93834 9.84855 3.842C9.76257 3.74817 9.6738 3.67132 9.61007 3.6299C9.56613 3.60177 9.41245 3.53215 9.27737 3.48891L9.27589 3.48843L9.27441 3.48795C9.15142 3.44752 8.94297 3.41478 8.69413 3.40388C8.45045 3.3932 8.19819 3.40475 7.99624 3.43729C7.29359 3.55356 6.65396 3.77244 5.94314 4.14968C5.61258 4.32507 5.44408 4.44765 5.32361 4.59042C5.20188 4.73468 5.10312 4.93038 4.9738 5.304L4.97345 5.30503L4.97309 5.30605C4.83807 5.68942 4.78299 6.01896 4.76646 6.70081L4.76643 6.70198L4.76639 6.70316C4.75803 6.98089 4.75094 7.16209 4.73328 7.29746C4.71258 7.45605 4.67704 7.55592 4.62886 7.6697L4.62825 7.67115L4.62763 7.6726C4.54007 7.87496 4.52956 8.05581 4.59855 8.28138L4.59899 8.28283L4.59942 8.28428C4.74181 8.76278 5.02633 9.18946 5.30444 9.40264L5.30518 9.4032L5.30591 9.40377C5.4373 9.50545 5.60029 9.69307 5.69409 9.8447C5.84033 10.0732 6.06276 10.3769 6.21875 10.5523L6.21917 10.5528L6.22914 10.5639C6.27392 10.6136 6.36411 10.7138 6.40298 10.8527C6.43732 10.9754 6.42377 11.1051 6.41563 11.183L6.41561 11.1832L6.41369 11.2019L6.41344 11.2043L6.41318 11.2067C6.36789 11.6122 6.16989 11.9946 5.85832 12.2726C5.49155 12.6026 4.93984 12.8341 3.87952 13.184L3.87878 13.1843C2.7999 13.538 2.52896 13.6649 2.27956 13.8551C2.0352 14.0422 1.88342 14.2146 1.77437 14.4242C1.66162 14.6408 1.58113 14.9227 1.51902 15.3503L1.51876 15.3521L1.51848 15.3539C1.48418 15.5757 1.43289 16.1995 1.41078 16.6H14.5928Z" fill="black"/>
</svg>
