<svg width="14" height="16" viewBox="0 0 14 16" fill="none" xmlns="http://www.w3.org/2000/svg">
<path d="M5.97103 0.0725324C4.24315 0.27892 2.10386 1.02619 1.11649 1.76634L0.821655 1.99408L0.842225 5.70906C0.862795 9.37423 0.869652 9.43116 1.02736 9.92223C1.34962 10.9328 1.87759 11.7868 2.76896 12.7263C3.74946 13.7724 5.04538 14.7403 6.54014 15.5516L7.38351 16L8.13775 15.6584C9.97534 14.8328 11.7512 13.4735 12.7386 12.1427C13.15 11.5876 13.6094 10.6766 13.7945 10.029C13.9522 9.50945 13.9522 9.4027 13.9797 5.74465L14.0002 1.99408L13.7054 1.77345C12.9923 1.23258 11.3398 0.549359 10.1125 0.293153C8.77542 0.0084806 7.23267 -0.0769213 5.97103 0.0725324ZM9.53652 1.31086C10.5445 1.4959 11.285 1.74499 12.1283 2.172L12.8963 2.55631V5.78735C12.8963 8.74083 12.8826 9.05397 12.766 9.54503C12.334 11.3029 10.8667 12.9184 8.55601 14.1923L7.95948 14.5268V13.5233V12.5199H7.41094H6.8624V13.4878V14.4556L6.54014 14.2635C4.56541 13.0892 3.0158 11.6089 2.37813 10.2852C1.93244 9.36711 1.92558 9.28171 1.92558 5.75176V2.57054L2.52897 2.25028C3.55062 1.7094 4.64084 1.37491 5.97103 1.20411C6.72527 1.11159 8.76857 1.17564 9.53652 1.31086Z" fill="black"/>
<path d="M4.00318 2.99048C3.80434 3.06877 3.48893 3.28227 3.29694 3.4602C2.96096 3.77334 2.50156 4.38538 2.55642 4.44232C2.57013 4.46367 2.7484 4.35692 2.94725 4.2217C3.72206 3.68082 4.30488 3.51001 4.76427 3.69505C5.02483 3.79469 5.53908 4.31422 5.74478 4.67006C6.01905 5.16112 6.38246 5.26075 6.69101 4.9405C6.96528 4.66294 6.91728 4.41385 6.51273 3.90856C5.73793 2.94067 4.89455 2.63464 4.00318 2.99048Z" fill="black"/>
<path d="M9.48851 2.9762C9.04283 3.13277 8.73427 3.38186 8.3023 3.91562C7.90461 4.4138 7.86347 4.67 8.13088 4.94044C8.29544 5.11125 8.52172 5.16107 8.74799 5.07566C8.8097 5.0472 8.97426 4.84793 9.11825 4.6273C9.26224 4.40668 9.5228 4.09354 9.70107 3.92274C10.4485 3.21106 10.9833 3.24664 11.8541 4.08643C12.0872 4.30705 12.2792 4.4565 12.2792 4.40668C12.2792 4.21453 11.8267 3.46014 11.6004 3.26087C11.1204 2.8481 10.1879 2.71999 9.48851 2.9762Z" fill="black"/>
<path d="M3.66723 5.26784C3.47524 5.34612 3.26268 5.46711 3.19411 5.5454C3.07755 5.68062 3.07755 5.69485 3.19411 5.83007C3.37239 6.02934 4.0032 6.25708 4.39404 6.25708C4.7643 6.25708 5.36769 6.04357 5.62139 5.83007L5.77909 5.68773L5.62139 5.5454C5.36083 5.32477 4.7643 5.11839 4.37347 5.1255C4.17462 5.1255 3.85921 5.18955 3.66723 5.26784Z" fill="black"/>
<path d="M9.72852 5.25366C9.55025 5.32483 9.33083 5.45293 9.22798 5.53122L9.05656 5.67356L9.26227 5.85148C9.87937 6.39236 11.0519 6.37101 11.6416 5.80878L11.7924 5.66644L11.621 5.5241C11.141 5.13268 10.3182 5.01881 9.72852 5.25366Z" fill="black"/>
<path d="M3.09123 8.62697C3.09123 8.64832 3.44092 9.26749 3.86604 10.0076L4.64085 11.3456L5.75849 11.367L6.87613 11.3883L7.13669 11.0823L7.39724 10.7763L7.69893 11.0823L8.00063 11.3883L9.09084 11.367L10.1811 11.3456L10.853 10.1713C11.6964 8.71237 11.7855 8.54157 11.6553 8.64832C11.6004 8.69102 11.1204 9.06821 10.5856 9.48099C9.31712 10.4702 9.31026 10.4702 8.54231 9.67315L7.99377 9.1038H7.41095H6.82813L6.2796 9.67315C5.51165 10.4702 5.50479 10.4702 4.2363 9.48099C3.70148 9.06821 3.22151 8.69814 3.18037 8.65544C3.13237 8.61985 3.09123 8.60562 3.09123 8.62697Z" fill="black"/>
</svg>
