<svg width="18" height="16" viewBox="0 0 18 16" fill="none" xmlns="http://www.w3.org/2000/svg">
<path fill-rule="evenodd" clip-rule="evenodd" d="M10.1875 6.9375H15.125V7.9375H10.1875V6.9375Z" fill="#111111"/>
<path fill-rule="evenodd" clip-rule="evenodd" d="M10.1875 9.75H15.125V10.75H10.1875V9.75Z" fill="#111111"/>
<path fill-rule="evenodd" clip-rule="evenodd" d="M4 6.875C4 5.97754 4.72754 5.25 5.625 5.25C6.52246 5.25 7.25 5.97754 7.25 6.875C7.25 7.77246 6.52246 8.5 5.625 8.5C4.72754 8.5 4 7.77246 4 6.875ZM5.625 6.25C5.27982 6.25 5 6.52982 5 6.875C5 7.22018 5.27982 7.5 5.625 7.5C5.97018 7.5 6.25 7.22018 6.25 6.875C6.25 6.52982 5.97018 6.25 5.625 6.25Z" fill="#111111"/>
<path fill-rule="evenodd" clip-rule="evenodd" d="M3.38498 11.4375H7.86502C7.64986 10.7147 6.98019 10.1875 6.1875 10.1875H5.0625C4.26981 10.1875 3.60014 10.7147 3.38498 11.4375ZM2.3125 11.9375C2.3125 10.4188 3.5438 9.1875 5.0625 9.1875H6.1875C7.7062 9.1875 8.9375 10.4188 8.9375 11.9375V12.4375H2.3125V11.9375Z" fill="#111111"/>
<path fill-rule="evenodd" clip-rule="evenodd" d="M0.0625 0.75H4.4375V1.25C4.4375 1.90592 4.96908 2.4375 5.625 2.4375C6.28092 2.4375 6.8125 1.90592 6.8125 1.25V0.75H11.1875V1.25C11.1875 1.90593 11.7191 2.4375 12.375 2.4375C13.0309 2.4375 13.5625 1.90593 13.5625 1.25V0.75H17.9375V15.25H0.0625V0.75ZM1.0625 1.75V14.25H16.9375V1.75H14.5051C14.279 2.71722 13.4112 3.4375 12.375 3.4375C11.3388 3.4375 10.471 2.71722 10.2449 1.75H7.75511C7.52899 2.71722 6.66117 3.4375 5.625 3.4375C4.58883 3.4375 3.72101 2.71722 3.49489 1.75H1.0625Z" fill="#111111"/>
</svg>
