<svg width="17" height="17" viewBox="0 0 17 17" fill="none" xmlns="http://www.w3.org/2000/svg">
<path d="M8.03492 0.0492277C7.16639 0.192544 6.37717 0.463254 5.51261 0.921071C4.71546 1.34306 4.47751 1.62173 4.16817 2.51348C3.9897 3.01907 3.92228 3.453 3.90245 4.26911C3.88262 4.92598 3.87072 5.0056 3.77951 5.22057C3.63277 5.55896 3.6169 5.88142 3.72795 6.24369C3.91435 6.86871 4.29111 7.45392 4.70753 7.77241C4.81064 7.85203 4.96531 8.02719 5.0486 8.16254C5.22706 8.44122 5.50071 8.81543 5.70297 9.04235C5.83385 9.18965 5.83781 9.20159 5.81402 9.44045C5.77436 9.79476 5.59986 10.1331 5.32224 10.38C4.98118 10.6865 4.43785 10.9294 3.19255 11.3394C1.95123 11.7455 1.56257 11.9127 1.20167 12.1874C0.555227 12.681 0.293477 13.1826 0.142773 14.2177C0.0872499 14.576 0 15.7265 0 16.0609V16.1923H8.11424H16.2285L16.2087 15.0855C16.1928 14.3172 16.169 13.8912 16.1254 13.6842C15.9429 12.8044 15.4036 12.2789 14.0909 11.6937C13.6268 11.4907 13.1906 11.3354 12.1753 11.0169C11.4178 10.7781 10.938 10.5671 10.6366 10.3322C10.3867 10.1371 10.1963 9.87438 10.1646 9.68329C10.1448 9.55988 10.1686 9.52007 10.4026 9.24936C10.7238 8.87913 10.93 8.60444 11.1442 8.24615C11.2473 8.08292 11.4456 7.84406 11.6439 7.66094C12.1317 7.19914 12.441 6.65772 12.5719 6.02872C12.6274 5.75801 12.5759 5.43555 12.4371 5.18474C12.3657 5.04939 12.3578 4.99763 12.3855 4.82645C12.4053 4.71498 12.4252 4.27707 12.4252 3.8511C12.4291 3.17831 12.4172 3.03101 12.3459 2.73244C12.1317 1.88846 11.747 1.41472 11.1402 1.25946C10.9776 1.21567 10.9459 1.1878 10.8705 1.03652C10.7635 0.813583 10.466 0.491121 10.232 0.339842C10.1329 0.276146 9.9108 0.180601 9.7363 0.124867C9.33574 -0.00650659 8.57825 -0.0383547 8.03492 0.0492277ZM9.45868 0.726001C9.93856 0.849412 10.232 1.12808 10.3907 1.59784L10.4779 1.86059H10.7C11.2394 1.86457 11.5646 2.21092 11.7192 2.95139C11.7986 3.34153 11.7986 4.25318 11.7192 4.78664L11.6558 5.20067L11.7787 5.37583C11.9493 5.61469 11.9691 5.81374 11.8581 6.16407C11.7034 6.63781 11.3187 7.15933 10.9618 7.37032C10.8983 7.41013 10.7952 7.53354 10.7317 7.64501C10.5017 8.067 10.1646 8.53676 9.85131 8.86719C9.49041 9.24538 9.44282 9.37676 9.51421 9.77088C9.66491 10.5591 10.3669 11.1244 11.7589 11.5743C13.1866 12.0321 13.6189 12.1913 14.1384 12.4501C15.0109 12.884 15.3441 13.2105 15.4631 13.7439C15.5186 13.9908 15.582 14.779 15.586 15.2249V15.5155H8.12614H0.670238L0.694033 15.2249C0.781283 14.1898 0.880431 13.6643 1.047 13.3339C1.15408 13.1229 1.43169 12.8243 1.69741 12.6412C1.96312 12.4541 2.2447 12.3466 3.44241 11.9485C4.05712 11.7455 4.74719 11.4867 4.97324 11.3792C6.00835 10.8776 6.46442 10.2247 6.46442 9.24538C6.46442 8.90301 6.45649 8.87515 6.36131 8.78358C6.19871 8.63629 5.7228 8.00729 5.5483 7.71269C5.43726 7.52558 5.33018 7.40217 5.19137 7.31061C4.84634 7.07573 4.50923 6.58208 4.3625 6.0964C4.26731 5.77393 4.28714 5.59877 4.45371 5.37583C4.537 5.26038 4.54493 5.21659 4.55286 4.52389C4.56079 3.64409 4.60838 3.26987 4.75909 2.80807C5.02084 2.02779 5.17154 1.84467 5.86161 1.47841C6.60323 1.08827 7.24174 0.861355 7.9913 0.726001C8.39185 0.650361 9.17314 0.654342 9.45868 0.726001Z" fill="black"/>
</svg>
