<svg width="168" height="31" viewBox="0 0 168 31" fill="none" xmlns="http://www.w3.org/2000/svg">
<path d="M119.034 7.61769C117.352 8.09819 116.545 8.53285 115.232 9.74547C113.826 11.0725 113.088 12.491 112.72 14.573C112.237 17.4558 113.158 20.4987 115.093 22.3748C118.734 25.8754 125.716 25.6923 129.103 22.0317C130.693 20.2928 131.27 18.7141 131.27 16.0831C131.27 12.0563 129.426 9.28785 125.831 7.91514C124.241 7.29739 120.739 7.13723 119.034 7.61769ZM124.472 11.5987C126.015 12.3766 126.822 13.9324 126.822 16.1288C126.822 18.4853 125.532 20.2928 123.411 20.9106C120.923 21.6427 118.711 20.6589 117.513 18.3023C117.052 17.4329 116.983 15.0535 117.375 14.0468C118.389 11.347 121.73 10.2031 124.472 11.5987Z" fill="#A3B0C3"/>
<path d="M139.219 7.61824C136.73 8.28172 134.403 10.3637 133.481 12.7203C132.744 14.5735 132.744 17.6165 133.504 19.5155C134.242 21.3915 136.316 23.4736 138.228 24.2057C140.187 24.9836 143.597 25.0064 145.717 24.2514C147.975 23.4736 147.906 23.588 147.1 21.7805C146.708 20.9339 146.362 20.1789 146.316 20.156C146.293 20.1332 145.694 20.3162 145.003 20.5679C143.459 21.1856 141.063 21.2543 140.072 20.7281C138.367 19.8128 137.399 18.1427 137.399 16.0835C137.399 13.6813 138.804 11.7136 140.924 11.1416C142.054 10.8442 144.357 11.1645 145.533 11.7594C145.924 11.9653 146.247 12.0797 146.293 12.0339C146.454 11.8737 147.791 8.80798 147.745 8.76222C147.699 8.73933 147.353 8.55629 146.984 8.35036C144.979 7.34367 141.431 7.00048 139.219 7.61824Z" fill="#A3B0C3"/>
<path d="M63.9159 8.69438C63.6624 9.24345 62.0034 12.9727 60.2521 16.9995L57.0722 24.3209L59.5839 24.3895L62.0724 24.4582L65.4597 22.4906L68.87 20.5458H66.174C64.2384 20.5458 63.455 20.4772 63.455 20.2713C63.455 19.8823 66.5197 12.0805 66.6579 12.0805C66.7501 12.0805 67.8792 14.8717 69.1926 18.2579L71.589 24.4353H73.8703C75.1143 24.4353 76.1282 24.3438 76.1282 24.2522C76.1282 24.1607 74.5382 20.4314 72.5799 15.9699L69.0313 7.84778L66.704 7.77914L64.3767 7.71057L63.9159 8.69438Z" fill="#A3B0C3"/>
<path d="M83.5254 9.49504C83.1567 10.4788 81.7049 14.1624 80.2992 17.6858C78.8935 21.2092 77.7413 24.1606 77.7413 24.2521C77.7413 24.3665 78.7553 24.4352 80.0227 24.4352H82.3041L84.5386 18.2349L86.797 12.0346L89.0323 18.1663L91.2676 24.3208L93.6173 24.3894C95.0691 24.4352 95.9678 24.3665 95.8987 24.2293C95.8757 24.1149 94.3778 20.3398 92.6041 15.8783L89.3779 7.73328H86.797H84.216L83.5254 9.49504Z" fill="#A3B0C3"/>
<path d="M97.3265 16.0614V24.4352H99.631H101.935V17.9146V11.3941H103.502C104.631 11.3941 105.253 11.5085 105.806 11.8516C107.166 12.6752 107.419 14.3684 106.336 15.5581C105.76 16.2216 105.483 16.336 104.262 16.4275L102.879 16.5419L103.847 18.2121L104.815 19.8822L105.898 19.7678C107.12 19.6306 108.963 18.784 109.701 17.9833C110.668 16.9766 111.152 15.5352 111.152 13.6819C111.152 11.0051 110.161 9.3578 107.926 8.32823C107.004 7.8935 106.382 7.84773 102.12 7.77909L97.3265 7.71045V16.0614Z" fill="#A3B0C3"/>
<path d="M155.764 8.46557C155.579 8.87735 153.966 12.561 152.192 16.6335C150.395 20.7288 148.943 24.1378 148.943 24.2522C148.943 24.3438 149.957 24.4353 151.202 24.4353H153.482L155.879 18.2579C157.192 14.8717 158.322 12.0805 158.414 12.0805C158.552 12.0805 161.617 19.8823 161.617 20.2713C161.617 20.4772 160.833 20.5458 158.921 20.5458H156.202L159.612 22.4906L162.999 24.4582L165.511 24.3895L167.999 24.3209L164.405 16.0843L160.81 7.84778L158.437 7.77914L156.063 7.71057L155.764 8.46557Z" fill="#A3B0C3"/>
<path d="M48.8047 21.8785H26.9577L37.8451 28.0478L48.8047 21.8785Z" fill="url(#paint0_linear)"/>
<path d="M27.031 21.8775L37.928 3.07642L27.1123 9.36875L27.031 21.8775Z" fill="url(#paint1_linear)"/>
<path d="M48.778 21.8775L37.8809 3.07642L48.6967 9.36875L48.778 21.8775Z" fill="url(#paint2_linear)"/>
<path d="M27.1575 9.12169H5.31055L16.1979 2.95239L27.1575 9.12169Z" fill="url(#paint3_linear)"/>
<path d="M5.3858 9.12146L16.2828 27.9226L5.46705 21.6303L5.3858 9.12146Z" fill="url(#paint4_linear)"/>
<path d="M27.1328 9.12146L16.2358 27.9226L27.0516 21.6303L27.1328 9.12146Z" fill="url(#paint5_linear)"/>
<defs>
<linearGradient id="paint0_linear" x1="46.688" y1="22.1355" x2="29.4017" y2="22.6529" gradientUnits="userSpaceOnUse">
<stop stop-color="#004272"/>
<stop offset="1" stop-color="#17AAFD"/>
</linearGradient>
<linearGradient id="paint1_linear" x1="27.8625" y1="19.9278" x2="35.9495" y2="4.74892" gradientUnits="userSpaceOnUse">
<stop stop-color="#004272"/>
<stop offset="1" stop-color="#17AAFD"/>
</linearGradient>
<linearGradient id="paint2_linear" x1="47.9465" y1="19.9278" x2="39.8595" y2="4.74892" gradientUnits="userSpaceOnUse">
<stop stop-color="#17AAFD"/>
<stop offset="1" stop-color="#004272"/>
</linearGradient>
<linearGradient id="paint3_linear" x1="24.5302" y1="7.75001" x2="9.29127" y2="7.75001" gradientUnits="userSpaceOnUse">
<stop stop-color="#FF7070"/>
<stop offset="1" stop-color="#AE1818"/>
</linearGradient>
<linearGradient id="paint4_linear" x1="5.49891" y1="12.0668" x2="13.019" y2="25.2273" gradientUnits="userSpaceOnUse">
<stop stop-color="#FF7070"/>
<stop offset="1" stop-color="#AE1818"/>
</linearGradient>
<linearGradient id="paint5_linear" x1="27.0197" y1="12.0668" x2="19.4996" y2="25.2273" gradientUnits="userSpaceOnUse">
<stop stop-color="#AE1818"/>
<stop offset="1" stop-color="#FF7070"/>
</linearGradient>
</defs>
</svg>
