<svg width="123" height="43" viewBox="0 0 123 43" fill="none" xmlns="http://www.w3.org/2000/svg">
<g clip-path="url(#clip0)">
<path d="M16.3125 41.1895C16.2839 41.1315 16.2839 41.1031 16.2554 41.0456C15.8294 40.3685 15.2472 39.8069 14.5594 39.4096C13.831 38.99 13.0639 38.6439 12.2691 38.3762C11.2514 38.0289 10.2073 37.7734 9.18901 37.5174C8.10775 37.2392 7.04152 36.9038 5.99475 36.5126C5.01694 36.1581 4.09324 35.6655 3.25087 35.0493C2.02716 34.1492 1.10873 32.8856 0.622257 31.4331C0.36048 30.7188 0.180256 29.9764 0.0851178 29.2205C0.0570975 28.9048 0.0285489 28.7331 0 28.1598V1.81055H32.7074V28.4459H32.6504C32.5855 30.1162 32.0884 31.7396 31.2092 33.1529C30.5115 34.1909 29.5817 35.0466 28.496 35.65C27.5975 36.1516 26.6494 36.5556 25.6675 36.8555C24.5652 37.2002 23.4624 37.4868 22.3321 37.8024C21.3917 38.0424 20.4664 38.3396 19.5612 38.6924C18.884 38.9619 18.2391 39.3085 17.6389 39.7257C17.1125 40.12 16.6697 40.6178 16.3368 41.1895H16.3125ZM0.28496 26.0921C0.28496 26.7234 0.342057 27.3552 0.399155 27.9864C0.48575 28.6856 0.627182 29.3767 0.8221 30.053C1.29583 31.5436 2.2265 32.8413 3.4782 33.7567C4.26414 34.3183 5.11972 34.7718 6.02276 35.1057C6.9839 35.4787 8.00161 35.7659 8.98866 36.0531C9.97835 36.3113 10.9395 36.5695 11.9286 36.8583C12.7521 37.0837 13.5485 37.4013 14.303 37.8051C15.0597 38.1919 15.7251 38.7401 16.2538 39.4122C16.2823 39.4122 16.3109 39.4122 16.3109 39.4412C16.3147 39.4414 16.3185 39.4407 16.322 39.4393C16.3255 39.4379 16.3288 39.4358 16.3314 39.4331C16.3341 39.4303 16.3362 39.4271 16.3376 39.4235C16.339 39.4199 16.3396 39.4161 16.3395 39.4122L16.4246 39.3258C16.6598 39.0294 16.9256 38.7594 17.2176 38.5206C17.8801 38.0043 18.6129 37.5884 19.3931 37.286C20.3543 36.913 21.372 36.6258 22.359 36.3392C23.4053 36.0499 24.451 35.7938 25.4962 35.4804C26.4866 35.1806 27.4434 34.7767 28.3511 34.2753C29.6764 33.5473 30.7511 32.4257 31.4312 31.0605C31.9431 29.9617 32.2405 28.7727 32.3072 27.5591C32.3644 26.8699 32.3358 26.1812 32.3358 25.4925V2.18361H0.28496V26.0921ZM16.6212 33.7841C16.6212 33.7841 21.0601 29.6799 21.5702 29.0787C23.5792 26.6965 24.7646 23.9982 24.9353 19.4656C24.9849 17.9613 24.9276 16.4554 24.764 14.9594L25.4143 15.9642C26.2017 18.2365 26.4066 20.6749 26.0096 23.0497C25.6108 25.5197 24.5547 27.8321 22.9554 29.7368H23.8885C23.8885 29.7368 20.4827 33.7852 16.7407 33.7852L16.6212 33.7841ZM12.0698 33.009C12.7316 32.5205 13.42 32.0702 14.1317 31.6601C15.3933 30.8785 16.5776 29.9751 17.668 28.9623C17.1743 28.6318 16.7434 28.2136 16.396 27.7277L16.3669 29.3917C15.8455 29.1353 15.3447 28.8378 14.8692 28.5017C14.3074 28.1047 13.8196 27.6095 13.4285 27.039V27.4684C12.9848 27.1617 12.5686 26.8159 12.1845 26.4351C11.9156 26.1291 11.6697 25.8029 11.4492 25.4593L9.07485 25.9187L8.45256 26.4931L8.84858 25.1152L12.1597 24.4571C12.3107 24.8722 12.5414 25.2526 12.8385 25.5763C13.1137 25.8314 13.4173 26.0529 13.7431 26.2365C13.7431 26.2365 13.7716 24.8296 13.7716 24.8017C14.0044 25.7077 14.558 26.4947 15.3265 27.0122C15.3836 27.0701 15.355 25.003 15.355 25.003C15.6718 25.5266 16.0515 26.0082 16.4854 26.4367C16.7335 26.6904 17.0189 26.9035 17.3313 27.0685C17.3932 26.4681 17.4122 25.8639 17.3884 25.2607L18.6318 26.1195V27.9564C19.8952 26.6072 20.8846 25.0187 21.5438 23.2816C22.4198 20.9283 22.2792 18.23 21.9668 15.8478C21.4555 16.7537 20.659 17.4587 19.7053 17.8492C18.7516 18.2398 17.6962 18.2932 16.709 18.0008C18.0137 17.9987 19.2645 17.4724 20.1883 16.537C21.0928 15.6475 21.63 13.7817 21.63 12.4038V11.0522L22.8137 13.092C23.1958 15.2419 23.3849 17.4227 23.3788 19.6073C23.3788 26.5248 18.7709 29.7417 18.7709 29.7417H20.2971C20.2971 29.7417 16.9078 33.1996 13.4243 33.1996C12.9663 33.202 12.5103 33.1386 12.0698 33.0112V33.009ZM48.9613 24.6568C48.9613 20.6675 51.7315 16.8789 57.0183 16.8789C62.5309 16.8789 65.0757 20.9262 65.0757 24.6568C65.0757 28.6461 62.305 32.4347 57.0183 32.4347C51.5343 32.4352 48.9622 28.4174 48.9622 24.6573L48.9613 24.6568ZM51.3639 24.3122C51.3639 28.0159 53.6544 30.6821 56.9613 30.6821C59.6751 30.6821 62.643 28.9027 62.643 24.9993C62.643 21.2955 60.3529 18.6293 57.046 18.6293C54.361 18.6299 51.3653 20.4093 51.3653 24.3127L51.3639 24.3122ZM65.9225 31.5179L65.3572 28.6193C65.9307 29.282 66.641 29.8083 67.4373 30.1609C68.2336 30.5134 69.0969 30.6835 69.9651 30.659C72.5664 30.659 74.2337 29.5689 74.2337 27.6477C74.2337 25.8109 72.8206 24.7776 70.6435 24.7776C69.9364 24.7239 69.2271 24.8522 68.5816 25.1506V22.9348C69.0823 23.0509 69.5943 23.1093 70.1082 23.1087C72.9919 23.1087 73.5303 21.7029 73.5303 20.7555C73.5303 19.3776 72.5404 18.603 70.7879 18.603C69.2299 18.6215 67.706 19.0678 66.3776 19.8945L66.6624 17.2251C69.0654 17.1092 68.6135 16.8805 70.7337 16.8805C71.7514 16.8805 75.9065 16.9095 75.9065 20.471C75.9065 22.8533 73.8711 23.5403 73.0798 23.7142V23.7722C73.5554 23.7565 74.0292 23.8414 74.4706 24.0216C74.912 24.2018 75.3116 24.4732 75.6441 24.8188C75.9771 25.1643 76.235 25.5762 76.4022 26.0286C76.5698 26.4808 76.6427 26.9635 76.6163 27.4459C76.6163 31.1196 73.3654 32.4111 70.0567 32.4111C68.6267 32.4755 67.2045 32.1687 65.9239 31.5195L65.9225 31.5179ZM117.231 29.5661L113.499 24.4002L116.75 19.9224C117.316 19.1473 117.596 18.6879 117.596 18.2585C117.58 18.0307 117.501 17.8124 117.367 17.6292C117.232 17.4461 117.049 17.3059 116.839 17.2251H120.882L115.794 23.9429L118.197 27.1861C120.119 29.7696 121.162 31.089 123.002 32.1513L120.768 32.2672C120.716 32.2701 120.664 32.2715 120.612 32.2715C119.048 32.2683 118.247 31.0112 117.234 29.5661H117.231ZM40.4812 32.1196C40.8137 31.885 41.0782 31.5643 41.2472 31.1908C41.4163 30.8172 41.4836 30.4045 41.4424 29.9956V19.3475C41.4836 18.9386 41.4163 18.5259 41.2472 18.1524C41.0782 17.7788 40.8137 17.4581 40.4812 17.2235H48.7098V17.1945C48.9649 17.1916 49.2196 17.1723 49.4724 17.1366V19.7775C48.9075 19.0024 48.1153 18.9187 46.4762 18.9187C45.5153 18.9187 44.2713 18.9766 43.5925 19.0051V29.9961C43.5474 30.4179 43.6251 30.844 43.8159 31.2215C44.0068 31.599 44.3024 31.9114 44.6662 32.1201L40.4812 32.1196ZM109.966 32.0906C110.302 31.8592 110.569 31.539 110.738 31.1647C110.908 30.7902 110.973 30.3759 110.927 29.9666V19.3186C110.973 18.9092 110.908 18.4949 110.738 18.1205C110.569 17.7461 110.302 17.4259 109.966 17.1945H114.037C113.703 17.4274 113.437 17.7479 113.268 18.1218C113.098 18.4959 113.032 18.9094 113.076 19.3186V29.9671C113.03 30.3765 113.095 30.7908 113.264 31.1652C113.434 31.5396 113.701 31.8598 114.037 32.0911L109.966 32.0906ZM104.679 32.0906C104.841 32.0402 104.989 31.953 105.112 31.8355C105.236 31.7182 105.331 31.5737 105.391 31.4131C105.451 31.2526 105.474 31.0803 105.459 30.9093C105.443 30.7384 105.389 30.5732 105.301 30.4266L103.718 26.4083H98.0656L96.7372 29.7669C96.4521 30.5135 96.2566 31.374 97.2456 32.0922H93.2882C94.3902 31.3745 94.7866 30.3987 95.2102 29.3944L99.3922 18.6014C99.4583 18.4762 99.4984 18.3385 99.5098 18.1969C99.5211 18.0553 99.5038 17.9128 99.4587 17.7783C99.4136 17.6438 99.3421 17.5201 99.2478 17.4149C99.154 17.3096 99.0396 17.2252 98.9121 17.1666H102.361V17.1956L107.421 29.9102C107.722 30.8397 108.358 31.619 109.202 32.0917L104.679 32.0906ZM98.6305 25.0325H103.182L100.892 19.1484L98.6305 25.0325ZM88.4826 32.0911C88.8188 31.8606 89.0866 31.5405 89.2561 31.1659C89.4256 30.7913 89.4903 30.3766 89.4433 29.9671V24.7717H81.3586V29.9666C81.3112 30.3761 81.3764 30.7908 81.5458 31.1654C81.7153 31.54 81.9827 31.86 82.3194 32.0906H78.2485C78.5852 31.8601 78.853 31.54 79.0225 31.1654C79.192 30.7908 79.2567 30.3761 79.2097 29.9666V19.3186C79.2567 18.9091 79.192 18.4944 79.0225 18.1198C78.853 17.7451 78.5852 17.4251 78.2485 17.1945H82.3194C81.9827 17.4251 81.7153 17.7452 81.5458 18.1198C81.3764 18.4944 81.3112 18.9091 81.3586 19.3186V23.076H89.4433V19.3186C89.4903 18.9091 89.4256 18.4944 89.2561 18.1198C89.0866 17.7452 88.8188 17.4251 88.4826 17.1945H92.5534C92.2168 17.4251 91.9489 17.7451 91.7794 18.1198C91.61 18.4944 91.5453 18.9091 91.5922 19.3186V29.9671C91.5453 30.3766 91.61 30.7913 91.7794 31.1659C91.9489 31.5406 92.2168 31.8606 92.5534 32.0911H88.4826ZM22.7576 31.9194C22.5599 31.8904 26.1497 28.9081 27.2805 22.7056C27.5825 20.7142 27.5439 18.6847 27.1663 16.7066C27.8166 17.1945 28.8052 20.2971 28.3252 23.4512C27.9995 25.5104 27.2488 27.4765 26.1222 29.2205H26.8005C26.8005 29.2205 24.4859 31.9237 22.8771 31.9237C22.8373 31.9246 22.7974 31.9232 22.7576 31.9194ZM6.81311 27.499C6.63658 27.5374 6.45654 27.5568 6.27601 27.557C6.07825 27.557 5.22973 27.528 5.08856 26.8393C5.04245 26.6932 5.03949 26.5364 5.08008 26.3886C5.12067 26.2407 5.20304 26.1082 5.31697 26.0073C5.17302 25.9784 5.04141 25.9048 4.94023 25.7969C4.83905 25.689 4.77322 25.5519 4.75181 25.4045C4.72981 25.2545 4.74698 25.1012 4.80151 24.9599C4.85604 24.8186 4.9461 24.6943 5.06268 24.5994C4.93339 24.5406 4.82124 24.449 4.737 24.3333C4.65282 24.2176 4.59947 24.0819 4.58207 23.9391C4.54875 23.781 4.55452 23.6169 4.59888 23.4616C4.6433 23.3063 4.72489 23.1646 4.83641 23.0492C4.94551 22.9483 5.06728 22.8626 5.19853 22.7942L2.63178 23.0492C2.9631 22.3023 3.48709 21.6602 4.14831 21.1909C4.80953 20.7215 5.58343 20.4424 6.38807 20.383C7.17787 20.2823 7.97979 20.4027 8.70717 20.7309C9.43456 21.0592 10.0599 21.5829 10.5155 22.2456L8.05605 22.5038C8.13818 22.7021 8.26387 22.8787 8.4235 23.0202C8.84644 23.2521 10.6572 22.7883 11.3074 22.6755H11.3667C10.5151 20.8245 9.87886 18.879 9.47082 16.8784C8.56622 16.9073 6.89825 16.9364 6.75707 16.7045C6.5692 16.3281 6.45317 15.919 6.41504 15.4988C6.35482 15.3583 6.26097 15.2352 6.14194 15.141C6.02295 15.0466 5.88259 14.984 5.73371 14.9588C5.58479 14.9336 5.432 14.9467 5.28932 14.9967C5.14664 15.0468 5.01858 15.1324 4.91677 15.2455C4.40974 15.9036 4.6048 16.7324 5.69759 16.9369C5.69021 16.9288 5.7082 16.8875 5.7082 16.6803H6.10417C6.07237 16.8254 6.07916 16.9764 6.12385 17.1179C6.16854 17.2594 6.24954 17.3862 6.35846 17.4855C6.01648 17.5787 5.65417 17.5591 5.32385 17.4297C4.99357 17.3002 4.71231 17.0675 4.52076 16.7651C4.31403 16.7972 4.10304 16.7862 3.90062 16.7329C3.82674 16.8014 3.77005 16.8868 3.73529 16.9821C3.70052 17.0773 3.68869 17.1796 3.70077 17.2804C3.70413 17.3622 3.72389 17.4425 3.75886 17.5163C3.79383 17.5901 3.84327 17.6559 3.90415 17.7096C3.96502 17.7633 4.03606 17.8038 4.11291 17.8287C4.18975 17.8536 4.27079 17.8623 4.35105 17.8543C4.774 17.8543 5.00132 17.3378 5.00132 17.3378L4.9749 18.2852L9.6109 18.2563C9.08136 19.0635 8.33603 19.7008 7.46237 20.0931C6.83889 20.3278 6.17592 20.4351 5.51149 20.4088C4.50377 20.4161 3.52826 20.0485 2.76924 19.3755C2.42391 19.0493 2.12894 18.6722 1.89427 18.2568H3.95613C3.80746 18.2024 3.67092 18.1186 3.55447 18.0101C3.43802 17.9016 3.34398 17.7707 3.27783 17.625C3.18189 17.4549 3.14654 17.2565 3.17774 17.063C3.20893 16.8696 3.30476 16.6929 3.44912 16.5628C3.34205 16.5022 3.24573 16.4238 3.16416 16.3309C3.02533 16.1943 2.91886 16.0274 2.85277 15.8429C2.73978 15.518 2.73978 15.1636 2.85277 14.8386C2.92975 14.6257 3.06286 14.4384 3.23758 14.297C3.4123 14.1557 3.62191 14.0658 3.84352 14.0372C4.23865 13.9854 4.63911 14.0769 4.97435 14.2954V11.3651H6.3299L6.35846 14.1778C6.5134 14.1835 6.66446 14.2286 6.7978 14.3088C6.93119 14.3891 7.04262 14.5021 7.12188 14.6374C7.23741 14.9095 7.30433 15.2002 7.31959 15.4962C7.31149 15.632 7.35321 15.766 7.43667 15.8725C7.52013 15.979 7.63944 16.0502 7.77164 16.0727H9.38413C9.32755 15.5385 9.32755 14.9997 9.38413 14.4656C9.47178 13.6448 9.75285 12.8575 10.2036 12.1703C10.2034 12.1665 10.204 12.1626 10.2054 12.1591C10.2068 12.1555 10.2089 12.1522 10.2116 12.1495C10.2143 12.1468 10.2175 12.1446 10.221 12.1432C10.2245 12.1418 10.2283 12.1412 10.2321 12.1413C10.3202 12.0117 10.4154 11.8872 10.5171 11.7683C10.7113 11.526 10.9093 11.2867 11.1108 11.0506C11.3568 10.7948 11.545 10.4876 11.6622 10.1505C11.7794 9.81334 11.8229 9.45427 11.7896 9.09837C11.7045 7.86377 9.27361 7.7779 8.96274 8.49555C8.79851 8.1458 8.71173 7.76383 8.70845 7.37638C8.69683 7.0775 8.78657 6.78361 8.96274 6.54385C9.33283 5.91257 10.2347 5.8836 10.9416 5.79773C10.9131 4.0752 15.6347 4.79289 17.2462 5.94158C17.0749 6.02799 16.3696 6.45794 16.3696 6.45794C16.8221 7.40534 17.2155 10.706 17.3027 12.6577C18.801 13.4044 18.6598 11.3662 18.405 8.78275C18.3215 8.31495 18.3442 7.83408 18.4713 7.37651C18.5983 6.91899 18.8265 6.49691 19.1383 6.14232C19.3886 5.9237 19.6821 5.76193 19.9991 5.66787C20.316 5.57382 20.6491 5.54965 20.976 5.59695C23.408 5.77089 30.5309 9.81656 30.7862 18.5107C30.9004 22.1554 29.2033 26.9488 28.1576 27.4652C28.8079 25.0545 30.4479 21.668 28.497 16.0711C29.334 17.1412 29.8711 18.4207 30.0519 19.7748C30.0519 19.3728 30.0233 18.9697 29.9948 18.5692C29.795 16.4084 29.132 14.3182 28.0523 12.4451C26.9726 10.572 25.5024 8.96145 23.7447 7.72635C21.9356 6.52077 20.4669 6.14771 20.0698 6.77895C19.759 7.29531 20.155 9.07528 20.184 9.59164C20.2411 10.6819 20.469 12.8923 19.4772 13.7538C18.1756 14.8435 14.5007 11.8901 14.5007 11.8901C14.5007 11.8901 15.0378 12.0641 15.603 11.0581C15.6315 10.9717 15.6881 10.9143 15.7172 10.8262C16.028 9.67805 16.1132 8.55833 15.4322 6.29155C15.7596 6.12834 16.1 5.99381 16.4499 5.88953C14.3294 5.94746 12.4637 5.88953 12.4071 5.88953C12.4071 6.92279 11.2483 6.83693 11.2483 6.29155C10.146 6.26259 9.55277 6.17559 9.63682 7.72635C9.96382 7.65968 10.2942 7.61165 10.6265 7.5825C12.5208 7.46654 12.8031 9.21859 12.6619 10.3952C12.5203 11.5433 11.8991 11.3136 11.2763 13.3233C10.7111 15.8778 11.7288 17.2262 13.0003 19.1785C12.2525 18.8543 11.5859 18.364 11.0495 17.7437C11.4652 19.3663 12.1028 20.9218 12.9437 22.3648C14.866 21.8768 15.3181 21.3599 15.3181 21.1302V22.4506C15.0331 22.9101 13.7352 23.1109 11.558 23.5983C8.5049 24.1437 8.61807 24.1726 8.13591 23.8876C7.8807 23.6871 7.68513 23.4188 7.57074 23.1125C7.4856 23.1125 6.01589 23.2864 5.67645 23.3444C5.55682 23.385 5.4561 23.4689 5.39351 23.58C5.33091 23.6912 5.31078 23.8219 5.33706 23.9472C5.42216 24.3492 5.64793 24.4925 6.10048 24.4351V24.5511C6.02491 24.5549 5.95097 24.5748 5.88341 24.6095C5.8159 24.6441 5.75622 24.6927 5.70829 24.7522C5.66042 24.8117 5.62529 24.8806 5.60525 24.9547C5.5852 25.0288 5.58065 25.1063 5.59185 25.1823C5.62634 25.3409 5.71171 25.4834 5.83457 25.5873C5.95744 25.6913 6.11087 25.7508 6.27068 25.7567V25.8431C6.12162 25.8992 5.99848 26.0097 5.92528 26.153C5.85207 26.2963 5.83403 26.4621 5.87471 26.6182C5.98892 27.192 6.58155 27.1061 6.75129 27.0777L8.10998 26.9316L8.50595 30.1748L7.12029 30.3187L6.81311 27.499ZM3.47926 15.4151C3.4615 15.5697 3.48973 15.7261 3.5603 15.8643C3.63088 16.0024 3.74056 16.1159 3.87524 16.1902C4.02136 16.2447 4.17295 16.2827 4.32726 16.3035H4.35581C4.28571 16.0344 4.28798 15.7511 4.36236 15.4831C4.43675 15.2152 4.58052 14.9724 4.77878 14.7801C4.66767 14.7046 4.53446 14.6699 4.40128 14.6819C4.00847 14.6851 3.47926 14.8773 3.47926 15.4151ZM100.771 13.7398V12.9551H98.0215V10.0028H98.3608V12.6867H99.2474V10.0028H99.5895V12.6867H100.476V10.0028H100.815V12.6867H101.112V13.7377L100.771 13.7398ZM51.0988 13.7398V12.9551H49.3011V10.0028H49.6487V12.6813H50.8017V10.0023H51.1489V12.6803H51.4473V13.7398H51.0988ZM118.802 12.6126C118.566 12.2854 118.45 11.8847 118.475 11.48C118.45 11.0756 118.566 10.675 118.802 10.3479C118.906 10.2242 119.035 10.1248 119.181 10.0567C119.327 9.9886 119.485 9.95334 119.646 9.95334C119.806 9.95334 119.964 9.9886 120.11 10.0567C120.256 10.1248 120.385 10.2242 120.489 10.3479C120.725 10.675 120.841 11.0756 120.816 11.48C120.841 11.8847 120.725 12.2854 120.489 12.6126C120.385 12.7363 120.256 12.8357 120.11 12.9038C119.964 12.9719 119.806 13.0072 119.646 13.0072C119.485 13.0072 119.327 12.9719 119.181 12.9038C119.035 12.8357 118.906 12.7363 118.802 12.6126ZM119.035 10.5804C118.899 10.8591 118.839 11.1703 118.864 11.4806C118.839 11.7908 118.899 12.102 119.035 12.3807C119.098 12.4883 119.187 12.5774 119.294 12.6393C119.401 12.7012 119.522 12.7338 119.646 12.7338C119.769 12.7338 119.89 12.7012 119.997 12.6393C120.104 12.5774 120.193 12.4883 120.256 12.3807C120.392 12.102 120.452 11.7908 120.428 11.4806C120.452 11.1703 120.392 10.8591 120.256 10.5804C120.193 10.4728 120.104 10.3837 119.997 10.3218C119.89 10.2599 119.769 10.2274 119.646 10.2274C119.522 10.2274 119.401 10.2599 119.294 10.3218C119.187 10.3837 119.098 10.4728 119.035 10.5804ZM107.213 12.6126C106.968 12.2926 106.845 11.8938 106.866 11.4892C106.85 11.0667 106.99 10.6535 107.26 10.3308C107.365 10.2094 107.496 10.1126 107.641 10.0472C107.788 9.98172 107.946 9.94922 108.106 9.9518C108.364 9.94981 108.616 10.0345 108.822 10.1928L108.636 10.421C108.477 10.2984 108.283 10.2334 108.084 10.2363C107.925 10.2329 107.77 10.2819 107.641 10.3758C107.511 10.4698 107.415 10.6037 107.368 10.7575C107.273 11.0073 107.231 11.2742 107.245 11.5412C107.236 11.7535 107.268 11.9654 107.338 12.1655C107.395 12.3292 107.501 12.4707 107.641 12.5703C107.781 12.6699 107.948 12.7226 108.119 12.721C108.324 12.725 108.526 12.6582 108.689 12.5316L108.876 12.7683C108.634 12.9255 108.353 13.0091 108.066 13.0093C107.904 13.0108 107.743 12.976 107.596 12.9074C107.449 12.8387 107.318 12.7378 107.214 12.6121L107.213 12.6126ZM89.6606 12.6126C89.4247 12.2856 89.309 11.8848 89.334 11.48C89.3094 11.0741 89.4265 10.6724 89.6643 10.3453C89.7686 10.2215 89.898 10.1222 90.0438 10.0541C90.1895 9.98593 90.3481 9.95067 90.5084 9.95067C90.6688 9.95067 90.8273 9.98593 90.9726 10.0541C91.1184 10.1222 91.2478 10.2215 91.3521 10.3453C91.5881 10.6722 91.7038 11.0728 91.6788 11.4774C91.7038 11.8821 91.5881 12.2829 91.3521 12.6099C91.2478 12.7337 91.1184 12.833 90.9726 12.9012C90.8273 12.9693 90.6688 13.0046 90.5084 13.0046C90.3481 13.0046 90.1895 12.9693 90.0438 12.9012C89.898 12.833 89.7686 12.7337 89.6643 12.6099L89.6606 12.6126ZM89.8939 10.5804C89.7577 10.8591 89.6984 11.1703 89.7226 11.4806C89.6984 11.7908 89.7577 12.102 89.8939 12.3807C89.9568 12.4883 90.046 12.5774 90.1531 12.6393C90.2602 12.7012 90.3813 12.7338 90.5048 12.7338C90.6278 12.7338 90.749 12.7012 90.856 12.6393C90.9631 12.5774 91.0524 12.4883 91.1152 12.3807C91.2519 12.102 91.3111 11.7908 91.2865 11.4806C91.3111 11.1703 91.2519 10.8591 91.1152 10.5804C91.0524 10.4727 90.9631 10.3834 90.856 10.3214C90.749 10.2595 90.6278 10.2268 90.5048 10.2268C90.3813 10.2268 90.2602 10.2595 90.1531 10.3214C90.046 10.3834 89.9568 10.4727 89.8939 10.5804ZM78.894 12.6126C78.6585 12.2854 78.5428 11.8847 78.5679 11.48C78.5428 11.0756 78.6585 10.675 78.894 10.3479C78.9984 10.2242 79.1277 10.1248 79.2735 10.0567C79.4193 9.9886 79.5774 9.95334 79.7382 9.95334C79.8985 9.95334 80.0566 9.9886 80.2024 10.0567C80.3482 10.1248 80.4775 10.2242 80.5819 10.3479C80.8174 10.675 80.9331 11.0756 80.908 11.48C80.9331 11.8847 80.8174 12.2854 80.5819 12.6126C80.4775 12.7363 80.3482 12.8357 80.2024 12.9038C80.0566 12.9719 79.8985 13.0072 79.7382 13.0072C79.5774 13.0072 79.4193 12.9719 79.2735 12.9038C79.1277 12.8357 78.9984 12.7363 78.894 12.6126ZM79.1273 10.5804C78.9911 10.8591 78.9318 11.1703 78.956 11.4806C78.9318 11.7908 78.9911 12.102 79.1273 12.3807C79.1901 12.4883 79.2794 12.5774 79.3865 12.6393C79.4935 12.7012 79.6147 12.7338 79.7382 12.7338C79.8612 12.7338 79.9824 12.7012 80.0894 12.6393C80.1965 12.5774 80.2858 12.4883 80.3486 12.3807C80.4848 12.102 80.5441 11.7908 80.5199 11.4806C80.5441 11.1703 80.4848 10.8591 80.3486 10.5804C80.2858 10.4728 80.1965 10.3837 80.0894 10.3218C79.9824 10.2599 79.8612 10.2274 79.7382 10.2274C79.6147 10.2274 79.4935 10.2599 79.3865 10.3218C79.2794 10.3837 79.1901 10.4728 79.1273 10.5804ZM58.1945 12.6126C57.959 12.2854 57.8433 11.8847 57.8683 11.48C57.8433 11.0756 57.959 10.675 58.1945 10.3479C58.2988 10.2242 58.4282 10.1248 58.574 10.0567C58.7198 9.9886 58.8783 9.95334 59.0386 9.95334C59.199 9.95334 59.3571 9.9886 59.5029 10.0567C59.6486 10.1248 59.778 10.2242 59.8823 10.3479C60.1179 10.675 60.2336 11.0756 60.2085 11.48C60.2336 11.8847 60.1183 12.2854 59.8823 12.6126C59.778 12.7363 59.6486 12.8357 59.5029 12.9038C59.3571 12.9719 59.199 13.0072 59.0386 13.0072C58.8783 13.0072 58.7198 12.9719 58.574 12.9038C58.4282 12.8357 58.2988 12.7363 58.1945 12.6126ZM58.4277 10.5804C58.2915 10.8591 58.2323 11.1703 58.2565 11.4806C58.2323 11.7908 58.2915 12.102 58.4277 12.3807C58.4906 12.4883 58.5799 12.5774 58.687 12.6393C58.794 12.7012 58.9152 12.7338 59.0386 12.7338C59.1616 12.7338 59.2828 12.7012 59.3899 12.6393C59.4969 12.5774 59.5862 12.4883 59.6491 12.3807C59.7853 12.102 59.8445 11.7908 59.8204 11.4806C59.8445 11.1703 59.7853 10.8591 59.6491 10.5804C59.5862 10.4728 59.4969 10.3837 59.3899 10.3218C59.2828 10.2599 59.1616 10.2274 59.0386 10.2274C58.9152 10.2274 58.794 10.2599 58.687 10.3218C58.5799 10.3837 58.4906 10.4728 58.4277 10.5804ZM46.884 12.9599C46.8184 12.9596 46.7532 12.9451 46.6931 12.9173C46.633 12.8896 46.5797 12.8492 46.5364 12.7989C46.4667 12.6848 46.4229 12.5565 46.4088 12.4231L46.3154 11.9454C46.2977 11.8297 46.2494 11.721 46.1756 11.6308C46.1369 11.5949 46.0913 11.5672 46.0421 11.5495C45.9924 11.5318 45.9401 11.5244 45.8877 11.5278H45.5232V12.9529H45.1733V10.0007H45.5195V11.2406H45.9268C45.9774 11.2442 46.028 11.2377 46.0758 11.2214C46.1241 11.2051 46.1687 11.1793 46.207 11.1456C46.2785 11.0597 46.3255 10.9553 46.3428 10.8439L46.428 10.4177C46.4453 10.3041 46.4922 10.1972 46.5637 10.108C46.6516 10.0327 46.7623 9.99028 46.8771 9.98779L47.0639 9.96633L47.1313 10.2116L46.9919 10.2465C46.9436 10.2579 46.8976 10.2775 46.8562 10.3045C46.7992 10.3544 46.7619 10.423 46.7505 10.4983L46.6361 10.9196C46.6134 11.0249 46.5701 11.1246 46.5086 11.2127C46.4585 11.2859 46.3897 11.344 46.3095 11.3807V11.3893C46.3765 11.4171 46.4352 11.4616 46.4808 11.5187C46.5496 11.6122 46.5988 11.7194 46.6252 11.8332L46.7906 12.4274C46.7942 12.4718 46.8083 12.5145 46.832 12.5519C46.8557 12.5894 46.8881 12.6203 46.9263 12.6422C46.9819 12.6688 47.0393 12.6917 47.0976 12.7109L47.1828 12.7372L47.1186 12.9824L46.884 12.9599ZM114.454 12.9551V10.0028H115.138C115.413 9.97416 115.689 10.0303 115.932 10.1639C116.025 10.2281 116.101 10.3144 116.154 10.4153C116.208 10.5162 116.235 10.6286 116.236 10.743C116.237 10.8301 116.22 10.9165 116.186 10.9963C116.151 11.0761 116.101 11.1477 116.037 11.2063C115.944 11.2905 115.834 11.3523 115.715 11.3871C115.852 11.4082 115.983 11.4613 116.097 11.5423C116.183 11.6157 116.251 11.7084 116.295 11.8129C116.34 11.9175 116.361 12.0312 116.355 12.1451C116.358 12.2524 116.34 12.3592 116.3 12.4589C116.261 12.5586 116.202 12.6489 116.127 12.7243C115.861 12.922 115.528 13.0053 115.202 12.9561L114.454 12.9551ZM114.789 12.6658H115.408C115.562 12.6785 115.715 12.6343 115.84 12.5412C115.892 12.4894 115.933 12.4269 115.959 12.358C115.985 12.289 115.997 12.2152 115.993 12.1413C115.999 12.0534 115.985 11.9651 115.952 11.8835C115.919 11.802 115.868 11.7294 115.802 11.6717C115.651 11.5828 115.476 11.5452 115.302 11.5643H114.789V12.6658ZM114.789 11.2761H115.293C115.439 11.2899 115.584 11.2486 115.701 11.1601C115.749 11.1096 115.787 11.0496 115.813 10.9838C115.838 10.9179 115.85 10.8475 115.848 10.7769C115.846 10.7062 115.83 10.6366 115.801 10.5723C115.772 10.508 115.731 10.4504 115.679 10.4027C115.538 10.3076 115.368 10.2677 115.2 10.2905H114.789L114.789 11.2761ZM111.337 12.9556V10.2997H110.557V10.0028H112.496L112.474 10.2997H111.686V12.9561L111.337 12.9556ZM103.267 12.9556V10.0034H104.857L104.811 10.3045H103.613V11.2632H104.613V11.5648H103.613V12.6534H104.898V12.9551L103.267 12.9556ZM93.9169 12.9556V10.0034H95.5555L95.5091 10.3045H94.264V11.2256H94.7428C95.0061 11.2061 95.2685 11.2667 95.4972 11.3995C95.6047 11.4839 95.6904 11.5936 95.7469 11.7191C95.8034 11.8446 95.8289 11.9821 95.8211 12.1199C95.8248 12.2302 95.8061 12.3401 95.7669 12.443C95.7277 12.546 95.6685 12.6398 95.5924 12.7189C95.4626 12.8209 95.3136 12.8948 95.1546 12.9363C94.9957 12.9777 94.8303 12.9857 94.6681 12.9599L93.9169 12.9556ZM94.2645 12.6663H94.8708C94.9483 12.6742 95.0262 12.6664 95.1004 12.6436C95.1747 12.6207 95.2435 12.5832 95.3036 12.5332C95.3551 12.4768 95.3956 12.4104 95.4216 12.3379C95.448 12.2654 95.4599 12.1884 95.4562 12.1113C95.4617 12.0214 95.4476 11.9313 95.4148 11.8478C95.3815 11.7642 95.3305 11.6891 95.2653 11.6282C95.1168 11.5322 94.9401 11.4912 94.7651 11.5123H94.264L94.2645 12.6663ZM83.1512 12.9556V10.0034H84.7416L84.6951 10.3045H83.497V11.2632H84.4978V11.5648H83.5011V12.6534H84.7862V12.9551L83.1512 12.9556ZM75.9762 12.9556V11.5262H74.7558V12.9556H74.4077V10.0034H74.7558V11.238H75.9771V10.0034H76.3242V12.9556H75.9762ZM70.5105 12.9556V10.0034H71.3245C71.545 9.98027 71.7669 10.0285 71.9591 10.1413C72.0766 10.2154 72.1732 10.3196 72.2388 10.4435C72.304 10.5674 72.3363 10.7066 72.3322 10.8472C72.34 10.9766 72.3199 11.1061 72.2744 11.2271C72.2288 11.3482 72.1586 11.458 72.068 11.5493C71.8721 11.7168 71.6197 11.8 71.3642 11.7812H70.8558V12.9567L70.5105 12.9556ZM70.858 11.4918H71.3455C71.4288 11.5037 71.5136 11.4953 71.5928 11.4673C71.6721 11.4393 71.7441 11.3925 71.8019 11.3308C71.8543 11.2733 71.8944 11.2055 71.9199 11.1316C71.9454 11.0578 71.9559 10.9795 71.9505 10.9014C71.9573 10.8172 71.945 10.7325 71.9154 10.6536C71.8858 10.5747 71.8393 10.5035 71.7792 10.4451C71.6188 10.33 71.4229 10.2781 71.2279 10.2991H70.8576L70.858 11.4918ZM66.7407 12.9556V10.0034H68.327L68.2805 10.3045H67.0824V11.2632H68.0832V11.5648H67.0824V12.6534H68.3675V12.9551L66.7407 12.9556ZM64.0224 12.9556V11.5262H62.8011V12.9556H62.4544V10.0034H62.8015V11.238H64.0229V10.0034H64.3709V12.9556H64.0224ZM55.2789 12.9556V10.9068C55.2789 10.8118 55.2876 10.5069 55.3004 10.3426C55.2721 10.4493 55.2338 10.553 55.186 10.6523L53.9647 12.9561H53.6043V10.0039H53.9519V12.0919C53.9519 12.1735 53.9392 12.3888 53.9182 12.5616C53.966 12.4213 54.0234 12.2844 54.0895 12.1521L55.2129 10.005H55.6279V12.9572L55.2789 12.9556ZM42.7698 12.9556L42.4918 12.0474H41.408L41.1278 12.9561H40.7757L41.7453 10.0039H42.2015L43.1637 12.9561L42.7698 12.9556ZM41.501 11.7586H42.4045L41.9589 10.3093L41.501 11.7586Z" fill="#015240"/>
</g>
<defs>
<clipPath id="clip0">
<rect width="123" height="43" fill="white"/>
</clipPath>
</defs>
</svg>
